<ttFont>
          <CharString index="0">
            rmoveto
            -228 -6 123 -222 285 hhcurveto
            196 -30 callgsubr
            -105 -112 -124 -42 -102 hhcurveto
            -179 -48 210 130 13 hvcurveto
            192 6 472 136 -1 311 rrcurveto
            141 -92 109 -194 -332 -250 -354 -379 -10 vhcurveto
            220 140 rmoveto
            -57 callsubr
            1 hvcurveto
            -203 -289 -116 -160 -7 vhcurveto
            return
          </CharString>
          <CharString index="1">
            195 hintmask 00000000
            hintmask 10010010
            -79 -318 rmoveto
            -47 -160 rlineto
            -12 39 90 -16 45 hhcurveto
            188 120 94 76 53 hvcurveto
            82 100 117 183 188 378 rrcurveto
            97 189 137 233 224 vvcurveto
            hintmask 10100010
            123 -40 68 -90 -57 -42 -30 -74 vhcurveto
            -49 34 -35 -46 vvcurveto
            -231 -106 -162 -86 -204 vhcurveto
            -155 -310 -20 272 -2 10 -83 712 -2 11 rlinecurve
            hintmask 10010010
            83 -10 -25 54 -100 hhcurveto
            -106 -96 -100 -25 -16 hvcurveto
            hintmask 11000010
            29 -60 rlineto
            40 48 18 1 15 hhcurveto
            20 13 -14 -42 7 hvcurveto
            172 -1017 rlineto
            96 hlineto
            -235 -109 -160 -70 -86 hhcurveto
            hintmask 10010010
            -96 -55 33 8 -19 hvcurveto
            hintmask 00001100
            return
          </CharString>
          <CharString index="2">
            rmoveto
            161 151 47 30 101 hvcurveto
            55 16 36 13 39 4 90 630 rcurveline
            -447 hlineto
            -13 -117 233 -17 -57 -397 rlineto
            -76 -77 -119 -15 -93 hhcurveto
            -248 -94 283 263 -5 hvcurveto
            303 -5 124 469 384 hhcurveto
            145 66 -28 -35 42 hvcurveto
            22 -183 rlineto
            131 hlineto
            58 297 -39 11 rlineto
            21 -73 -124 35 -206 hhcurveto
            -404 -346 -363 -548 163 callsubr
            5 141 -332 356 hhcurveto
            return
          </CharString>
          <CharString index="3">
            rmoveto
            83 88 callsubr
            -48 51 -75 -77 -69 -71 -79 hvcurveto
            -64 -1 53 -53 64 hhcurveto
            -422 hmoveto
            84 88 callsubr
            -49 51 -75 -76 -70 -71 -79 -64 53 -53 63 hvcurveto
            return
          </CharString>
          <CharString index="4">
            rmoveto
            84 69 73 81 61 -47 51 -75 -65 -81 -67 -79 hvcurveto
            -66 -1 53 -54 63 hhcurveto
            -420 hmoveto
            81 72 72 81 61 -47 52 -76 -68 -76 -70 -80 -63 52 -53 62 hvcurveto
            return
          </CharString>
          <CharString index="5">
            511 10 callgsubr
            162 1281 133 callgsubr
            -87 callsubr
            return
          </CharString>
          <CharString index="6">
            rmoveto
            1050 hlineto
            88 322 -109 30 -119 -211 -547 -24 83 604 447 -17 13 159 -448 -8 72 559 437 -15 47 -189 134 callsubr
            8 312 rlineto
            -934 hlineto
            hintmask 11101000
            47 callgsubr
            -160 -1282 -149 -29 rlineto
            endchar
          </CharString>
          <CharString index="7">
            rmoveto
            -50 -186 rlineto
            -17 40 93 -18 88 hhcurveto
            200 292 114 317 49 hvcurveto
            192 1240 -122 -42 rlineto
            21 -56 -81 21 -81 hhcurveto
            -413 -237 5 callgsubr
            130 105 72 78 67 hvcurveto
            -45 -275 rlineto
            -166 -26 -39 -39 -169 hhcurveto
            -104 -109 37 26 -55 hvcurveto
            282 410 rmoveto
            -96 -61 109 193 121 callsubr
            371 284 54 49 -10 -29 38 hvcurveto
            -102 -701 rlineto
            -80 -57 -114 -97 -119 hhcurveto
            return
          </CharString>
          <CharString index="8">
            -39 callsubr
            hstemhm
            835 195 hintmask 00000000
            hintmask 10011000
            -79 -318 rmoveto
            -47 -160 rlineto
            -12 39 90 -16 45 hhcurveto
            188 120 94 76 53 hvcurveto
            82 100 117 183 188 378 rrcurveto
            97 189 137 233 224 vvcurveto
            hintmask 10101000
            123 -40 68 -90 -57 -42 -30 -74 vhcurveto
            -49 34 -35 -46 vvcurveto
            -231 -106 -162 -86 -204 vhcurveto
            -155 -310 -20 272 -2 10 -83 712 -2 11 rlinecurve
            hintmask 10011000
            83 -10 -25 54 -100 hhcurveto
            -106 -96 -100 -25 -16 hvcurveto
            hintmask 11001000
            29 -60 rlineto
            40 48 18 1 15 hhcurveto
            20 13 -14 -42 7 hvcurveto
            172 -1017 rlineto
            96 hlineto
            -235 -109 -160 -70 -86 hhcurveto
            hintmask 10011000
            -96 -55 33 8 -19 hvcurveto
            return
          </CharString>
          <CharString index="9">
            116 callgsubr
            100 233 27 hvcurveto
            1 11 1 11 11 vvcurveto
            -147 hlineto
            -31 -10 -40 -39 -5 hvcurveto
            -110 -12 -29 -78 -147 hhcurveto
            -143 -35 55 84 hvcurveto
            24 5 32 26 vvcurveto
            25 -6 21 -22 vhcurveto
            -178 hlineto
            -9 -28 0 -26 -26 vvcurveto
            -198 173 -88 202 vhcurveto
            return
          </CharString>
          <CharString index="10">
            -54 -59 -26 -12 -21 hhcurveto
            -22 -7 24 52 7 hvcurveto
            125 964 rlineto
            -199 hlineto
            -116 -877 rlineto
            return
          </CharString>
          <CharString index="11">
            243 hmoveto
            607 hlineto
            8 88 -196 29 61 474 523 807 101 -56 callgsubr
            -417 hlineto
            -11 -101 140 -23 -341 -558 -72 -126 -36 127 -226 557 161 23 12 101 rlineto
            -498 hlineto
            -10 -101 105 -23 363 -807 -61 -474 -215 -29 rlineto
            return
          </CharString>
          <CharString index="12">
            -107 callsubr
            endchar
          </CharString>
          <CharString index="13">
            -96 callgsubr
            -148 return
          </CharString>
          <CharString index="14">
            rmoveto
            191 127 115 58 49 hvcurveto
            -40 82 rlineto
            51 callsubr
            -123 -80 102 237 hvcurveto
            358 -1 134 198 197 hhcurveto
            63 66 -37 -46 57 hvcurveto
            7 -5 9 -6 7 -6 59 199 rcurveline
            29 -57 -92 19 -72 hhcurveto
            -388 -204 -424 -308 -284 133 -167 226 hvcurveto
            return
          </CharString>
          <CharString index="15">
            146 callsubr
            -157 29 12 100 719 760 106 141 -126 -1001 -148 138 callgsubr
            505 10 callgsubr
            41 callsubr
            154 23 12 101 rlineto
            9 callgsubr
            -13 -105 -699 -732 -125 -165 126 1002 154 -56 callgsubr
            -485 -46 callgsubr
            return
          </CharString>
          <CharString index="16">
            rmoveto
            171 134 164 155 22 hvcurveto
            1 11 1 11 11 vvcurveto
            -105 hlineto
            -61 -22 -50 -141 -147 hhcurveto
            -126 -42 102 69 -14 hvcurveto
            -2 11 -1 11 -1 9 rrcurveto
            -108 hlineto
            -1 -6 0 -8 -7 vvcurveto
            -158 102 -173 188 vhcurveto
            endchar
          </CharString>
          <CharString index="17">
            163 254 -98 callgsubr
            return
          </CharString>
          <CharString index="18">
            -98 callgsubr
            hintmask 1000101010000000
            -31 54 rlineto
            -97 callsubr
            hintmask 0101001010000000
            -84 callsubr
            hintmask 1010001010000000
            -48 24 -249 -51 -18 -89 100 -60 -51 -366 rlineto
            168 callgsubr
          </CharString>
          <CharString index="19">
            rmoveto
            119 46 241 241 36 68 -144 138 rcurveline
            -317 -431 rlineto
            return
          </CharString>
          <CharString index="20">
            -490 -94 callsubr
            -30 rlineto
            return
          </CharString>
          <CharString index="21">
            30 -8 66 -6 69 1 197 2 154 187 34 274 133 1061 rcurveline
            235 146 callgsubr
            -234 hlineto
            12 90 21 165 55 113 102 1 rlinecurve
            72 1 44 -31 26 -18 59 168 rcurveline
            22 -51 -54 4 -53 hhcurveto
            -189 -191 -203 -247 -41 hvcurveto
            -12 -71 -149 -62 -15 -76 rlineto
            138 hlineto
            return
          </CharString>
          <CharString index="22">
            rmoveto
            82 72 74 80 hvcurveto
            62 1 -51 51 -75 hhcurveto
            -68 -78 -71 -80 -63 -20 callsubr
            return
          </CharString>
          <CharString index="23">
            -84 callgsubr
            83 callsubr
            return
          </CharString>
          <CharString index="24">
            413 -20 rmoveto
            135 110 79 82 65 hvcurveto
            1 -23 rlineto
            -99 -3 45 -39 81 hhcurveto
            113 95 101 25 99 callsubr
            -47 -23 -9 -17 hhcurveto
            -20 -8 28 48 6 hvcurveto
            208 1434 -53 27 -271 -42 -21 -83 125 -43 rlineto
            return
          </CharString>
          <CharString index="25">
            -103 callsubr
            endchar
          </CharString>
          <CharString index="26">
            1176 -16 117 -101 87 -77 15 callsubr
            233 142 callgsubr
            59 1031 -17 callgsubr
            hintmask 0100000110000000
            26 hmoveto
            249 hlineto
            57 97 -5 -4 45 hvcurveto
            hintmask 1000000110000000
            -67 callgsubr
            hintmask 1000001010000000
            -14 callgsubr
            hintmask 0100010010000000
            133 -23 -162 -13 callgsubr
            hintmask 1000000110000000
            -40 callsubr
            1040 -93 -93 callgsubr
            hintmask 0010100001000000
            81 callsubr
            hintmask 0011000001000000
            -77 callgsubr
            return
          </CharString>
          <CharString index="27">
            rlineto
            11 39 90 10 55 hhcurveto
            301 121 -134 -383 6 hvcurveto
            6 -372 -148 -405 -383 -27 -64 1 -123 10 -59 20 rrcurveto
            return
          </CharString>
          <CharString index="28">
            -147 -152 -5 -41 rlineto
            63 -7 47 -78 -86 vvcurveto
            -140 -106 -154 -105 -35 vhcurveto
            -2 -22 42 -71 rlineto
            180 74 211 164 271 vvcurveto
            108 -44 133 -134 36 vhcurveto
            return
          </CharString>
          <CharString index="29">
            rmoveto
            -97 -7 50 -36 83 hhcurveto
            123 105 116 29 19 hvcurveto
            return
          </CharString>
          <CharString index="30">
            -32 -42 -97 -51 -52 hhcurveto
            -68 -16 19 74 38 7 63 10 75 hvcurveto
            83 625 rlineto
            257 hlineto
            20 140 rlineto
            -260 hlineto
            34 261 rlineto
            -98 hlineto
            -35 -90 -55 -126 -45 -50 -123 -47 rcurveline
            -20 -88 rlineto
            120 hlineto
            -90 -719 rlineto
            -14 -104 1 -22 -11 vvcurveto
            return
          </CharString>
          <CharString index="31">
            321 -21 -7 -342 134 callsubr
            67 471 rlineto
            -1148 hlineto
            -77 -471 116 2 96 341 316 20 -165 -1297 -244 -23 rlineto
            endchar
          </CharString>
          <CharString index="32">
            1344 -16 117 -101 87 -87 120 1278 124 -119 118 -99 100 -100 116 -102 86 hstemhm
            1161 210 58 1214 -17 callgsubr
            hintmask 0100001010000000
            26 hmoveto
            249 hlineto
            57 97 -5 -4 45 hvcurveto
            hintmask 1000001010000000
            -67 callgsubr
            hintmask 1000010010000000
            -14 callgsubr
            hintmask 0101000010000000
            133 -23 -162 -13 callgsubr
            hintmask 1000001010000000
            -40 callsubr
            1066 -132 rmoveto
            -25 callsubr
            hintmask 0010100001000000
            813 1136 rlineto
            hintmask 0010000101000000
            -36 callsubr
            return
          </CharString>
          <CharString index="33">
            118 callgsubr
            88 -185 29 63 553 rlineto
            54 129 1 0 hvcurveto
            90 -2 81 -207 71 -180 rrcurveto
            -227 90 42 -55 55 hhcurveto
            233 hlineto
            5 98 rlineto
            -148 3 40 264 -123 hvcurveto
            -39 86 -83 153 -62 53 244 69 138 191 -5 242 rrcurveto
            235 -5 -138 107 -339 hhcurveto
            return
          </CharString>
          <CharString index="34">
            -79 -10 50 -48 71 hhcurveto
            80 78 58 91 11 hvcurveto
            69 9 -35 58 -95 hhcurveto
            -75 -73 -65 -84 -11 hvcurveto
            return
          </CharString>
          <CharString index="35">
            vvcurveto
            -151 -1 -69 -98 -113 hhcurveto
            -31 -43 5 9 -17 hvcurveto
            -16 -151 rlineto
            -16 22 56 -12 53 hhcurveto
            159 124 113 237 return
          </CharString>
          <CharString index="36">
            13 -14 121 -107 87 638 126 547 124 -102 117 -116 101 0 -20 hstemhm
            979 217 -194 202 -17 callgsubr
            hintmask 0110100100000000
            28 hmoveto
            238 hlineto
            72 108 -14 77 hhcurveto
            hintmask 1010100100000000
            362 317 141 363 -6 hvcurveto
            -3 172 -124 124 -165 24 rrcurveto
            hintmask 1010100010000000
            186 62 118 128 -4 218 rrcurveto
            165 -3 -129 154 -313 hhcurveto
            hintmask 1010001100000000
            -108 -98 -15 -99 hhcurveto
            -229 hlineto
            hintmask 1010010100000000
            -12 -101 rlineto
            hintmask 0111000100000000
            -2 callsubr
            442 765 rmoveto
            hintmask 1010100010000000
            70 557 rlineto
            9 48 85 2 30 hhcurveto
            210 77 -74 -154 3 hvcurveto
            -238 5 -158 -103 -197 hhcurveto
            hintmask 0111000100000000
            -54 -67 -2 3 -52 hvcurveto
            hintmask 1010100100000000
            -91 -725 rmoveto
            74 591 rlineto
            3 42 78 4 104 hhcurveto
            201 88 -83 -174 4 hvcurveto
            -265 5 -171 -96 -247 hhcurveto
            -41 -100 5 15 -37 hvcurveto
            endchar
          </CharString>
          <CharString index="37">
            -105 callsubr
            endchar
          </CharString>
          <CharString index="38">
            -23 -61 callgsubr
            return
          </CharString>
          <CharString index="39">
            133 callsubr
            154 -23 -76 -604 rlineto
            -28 -57 -122 -26 -91 hhcurveto
            -253 6 111 333 41 hvcurveto
            26 210 138 27 11 101 rlineto
            -476 hlineto
            -12 -101 134 -24 -45 -361 rlineto
            -365 -45 149 -72 235 hhcurveto
            112 129 24 54 105 hvcurveto
            -70 -560 return
          </CharString>
          <CharString index="40">
            rmoveto
            205 hlineto
            387 1020 115 -1020 rlineto
            207 hlineto
            599 1408 121 23 15 101 rlineto
            -429 hlineto
            -11 -101 135 -23 -406 -996 rlineto
            hintmask 01010100
            -74 -227 -18 264 -104 961 150 21 rlineto
            hintmask 10100100
            20 101 rlineto
            -483 hlineto
            -11 -101 119 -20 14 -121 -343 -906 -57 -199 -36 264 -117 963 156 19 11 101 rlineto
            -473 hlineto
            -12 -101 123 -23 rlineto
            endchar
          </CharString>
          <CharString index="41">
            145 428 -105 callgsubr
            return
          </CharString>
          <CharString index="42">
            -70 -554 rlineto
            -649 164 callsubr
            154 23 11 101 rlineto
            -491 -46 callgsubr
            return
          </CharString>
          <CharString index="43">
            -38 callgsubr
            hintmask 0101010010100000
            117 callsubr
            hintmask 1001010010100000
            -66 callgsubr
            hintmask 1001001010100000
            -7 -42 rlineto
            hintmask 1001010010100000
            -149 -62 -15 -76 rlineto
            138 hlineto
            1305 60 callsubr
            hintmask 1010100010100000
            -90 callgsubr
            hintmask 1001000110100000
            -49 24 -306 -51 -18 -81 146 -52 rlineto
            hintmask 1001010010100000
            -54 -384 -58 -321 -12 -161 rrcurveto
            endchar
          </CharString>
          <CharString index="44">
            214 hintmask 11010100
            -60 callgsubr
            hintmask 00101000
            return
          </CharString>
          <CharString index="45">
            rmoveto
            176 hlineto
            298 330 -74 57 -298 -243 -246 243 -79 -58 rlineto
            return
          </CharString>
          <CharString index="46">
            -47 callgsubr
            518 59 callsubr
            144 callsubr
            -65 callsubr
            return
          </CharString>
          <CharString index="47">
            rmoveto
            657 hlineto
            12 98 -236 24 106 869 -78 16 rlineto
            -3 hlineto
            -123 -87 -166 -44 -112 -30 10 -103 rcurveline
            79 9 113 12 82 29 -83 -671 rcurveline
            -246 -24 rlineto
            return
          </CharString>
          <CharString index="48">
            -20 138 -136 133 1024 41 callgsubr
            return
          </CharString>
          <CharString index="49">
            85 439 -104 callgsubr
            return
          </CharString>
          <CharString index="50">
            169 19 103 306 202 hhcurveto
            73 51 -45 -104 return
          </CharString>
          <CharString index="51">
            82 -20 139 1022 -20 30 -20 hstemhm
            118 1039 -849 209 310 207 131 callgsubr
            364 13 rmoveto
            36 -20 44 -12 46 -1 rrcurveto
            hintmask 11001100
            158 106 69 69 73 hvcurveto
            -113 -12 50 -23 80 hhcurveto
            102 93 84 22 16 hvcurveto
            -32 54 rlineto
            -21 -35 -19 -6 -14 hhcurveto
            -21 -8 24 52 7 hvcurveto
            123 950 rlineto
            -200 hlineto
            -112 -863 rlineto
            -64 -62 -117 -95 -102 hhcurveto
            -87 -48 49 149 126 25 120 19 118 hvcurveto
            18 117 19 118 7 106 rrcurveto
            hintmask 10101000
            97 5 -45 32 -78 hhcurveto
            -106 -91 -86 -21 -14 hvcurveto
            30 -53 rlineto
            21 36 18 5 14 hhcurveto
            19 5 -27 -48 -2 hvcurveto
            -18 -209 -39 -186 -25 -189 -108 -730 rcurveline
            188 hlineto
            endchar
          </CharString>
          <CharString index="52">
            rmoveto
            68 48 -263 342 -135 -121 45 -107 189 -126 96 -36 rlinecurve
            return
          </CharString>
          <CharString index="53">
            rmoveto
            -73 callsubr
            return
          </CharString>
          <CharString index="54">
            -22 -21 3 callgsubr
            hstemhm
            782 82 callsubr
            hintmask 00000000
            hintmask 00110010
            133 hmoveto
            -68 callgsubr
            hintmask 01010100
            -45 callsubr
            hintmask 10010100
            -49 callsubr
            hintmask 00110010
            -49 callgsubr
            hintmask 00101010
            20 212 rlineto
            hintmask 00110010
            -48 24 -12 callsubr
          </CharString>
          <CharString index="55">
            135 callgsubr
            20 152 rlineto
            -512 hlineto
            return
          </CharString>
          <CharString index="56">
            rmoveto
            504 hlineto
            -24 -196 rlineto
            171 hlineto
            24 196 rlineto
            172 hlineto
            16 149 -171 -13 30 241 -173 -18 -29 -235 -374 -27 62 81 475 595 -97 83 rlineto
            -61 hlineto
            -563 -769 rlineto
            return
          </CharString>
          <CharString index="57">
            rmoveto
            67 80 72 151 19 177 9 95 -4 95 -34 37 -159 -46 rcurveline
            -19 -42 20 -30 19 -96 -8 -75 rlinecurve
            -12 -108 -18 -101 -21 -82 6 -25 rcurveline
            endchar
          </CharString>
          <CharString index="58">
            -14 callsubr
            -5 27 48 3 hvcurveto
            5 102 21 114 18 102 rrcurveto
            return
          </CharString>
          <CharString index="59">
            hhcurveto
            405 234 438 312 251 -109 182 -231 -132 -106 -79 -82 -64 hvcurveto
            83 621 -51 27 -245 -39 -21 -84 95 -43 rlineto
            23 -1342 rmoveto
            93 690 rlineto
            82 54 113 105 121 68 callsubr
            -58 -52 10 30 -40 hvcurveto
            return
          </CharString>
          <CharString index="60">
            53 callsubr
            hstemhm
            -54 1908 hintmask 00000000
            hintmask 10011000
            -54 hmoveto
            512 hlineto
            9 88 -187 29 212 914 72 387 61 -377 rlineto
            hintmask 01011000
            172 -1059 112 15 471 1068 137 355 -30 -403 rlineto
            hintmask 10101000
            -37 -901 -176 -28 -9 -88 rlineto
            533 hlineto
            9 88 144 callgsubr
            hintmask 10011000
            165 -56 callgsubr
            -424 hlineto
            -140 -335 -176 -374 -139 -335 -65 -167 rcurveline
            -15 167 -164 1044 rlineto
            -447 67 callsubr
            hintmask 10101000
            161 -23 -317 -1281 -160 -29 rlineto
            endchar
          </CharString>
          <CharString index="61">
            -43 0 87 456 120 735 124 -102 119 -118 101 0 -20 hstemhm
            1014 214 hintmask 00000000
            hintmask 11010010
            28 hmoveto
            553 hlineto
            8 88 -200 29 51 430 rlineto
            -3 36 45 -1 89 hhcurveto
            338 287 212 393 -7 hvcurveto
            265 -4 -163 126 -294 hhcurveto
            hintmask 11000110
            -105 -86 -17 -96 hhcurveto
            -255 hlineto
            hintmask 11001010
            -12 -101 rlineto
            hintmask 11100010
            -2 callsubr
            418 590 rmoveto
            hintmask 11010010
            96 722 54 12 79 8 50 1 rlinecurve
            223 6 60 -108 -3 -187 -5 -303 -101 -162 -288 -3 rrcurveto
            hintmask 11100010
            -49 -55 4 10 -61 hvcurveto
            endchar
          </CharString>
          <CharString index="62">
            -20 -112 -24 -126 -5 -92 rrcurveto
            -97 -6 48 -37 84 hhcurveto
            114 99 101 25 15 hvcurveto
            return
          </CharString>
          <CharString index="63">
            -122 -43 75 80 109 77 55 120 86 hvcurveto
            136 96 204 101 220 vvcurveto
            140 -122 84 -169 -159 -112 -72 -35 -45 vhcurveto
            22 -99 rlineto
            17 17 111 58 126 hhcurveto
            73 37 -55 -57 -102 -50 -77 -145 -95 hvcurveto
            -167 -108 -162 -88 -205 vvcurveto
            endchar
          </CharString>
          <CharString index="64">
            -38 callsubr
            1159 -20 44 -20 return
          </CharString>
          <CharString index="65">
            rmoveto
            727 hlineto
            63 261 -100 20 -75 -133 -442 -29 rlineto
            267 149 319 296 207 vvcurveto
            131 -105 105 -203 -168 -151 -103 -68 -55 vhcurveto
            60 -71 rlineto
            52 51 114 55 110 hhcurveto
            108 55 -61 -84 -244 -465 -306 -138 -80 hvcurveto
            endchar
          </CharString>
          <CharString index="66">
            -230 -20 140 340 32 callsubr
            return
          </CharString>
          <CharString index="67">
            354 45 rmoveto
            159 1269 -80 callsubr
            -17 callgsubr
            return
          </CharString>
          <CharString index="68">
            -210 -506 147 1378 144 -1 -20 21 -20 return
          </CharString>
          <CharString index="69">
            133 -112 -21 return
          </CharString>
          <CharString index="70">
            rmoveto
            94 38 156 116 68 116 -136 120 rcurveline
            -276 -324 rlineto
            -352 -66 rmoveto
            85 37 189 118 51 116 -134 119 rcurveline
            -276 -324 rlineto
            endchar
          </CharString>
          <CharString index="71">
            -25 86 rlineto
            -942 hlineto
            -57 -346 121 -24 97 248 570 7 -167 -195 -811 -1123 rlineto
            return
          </CharString>
          <CharString index="72">
            -102 callgsubr
            endchar
          </CharString>
          <CharString index="73">
            -20 hstemhm
            765 215 -110 206 hintmask 00000000
            hintmask 00111101
            117 hmoveto
            200 hlineto
            100 755 rlineto
            141 99 138 107 103 hhcurveto
            61 52 -11 -143 -125 -34 -164 -22 -117 hvcurveto
            hintmask 01011110
            -19 -112 -25 -126 -5 -92 rrcurveto
            -97 -5 48 -36 84 hhcurveto
            123 109 107 27 15 hvcurveto
            hintmask 10011110
            -31 53 rlineto
            -44 -59 -26 -11 -21 160 callsubr
            2 hvcurveto
            8 102 20 114 17 102 rrcurveto
            hintmask 00111101
            22 112 29 87 callgsubr
            -139 -158 -148 -112 -139 -104 vhcurveto
            return
          </CharString>
          <CharString index="74">
            376 797 11 -121 104 -676 rlineto
            return
          </CharString>
          <CharString index="75">
            -87 -66 93 237 357 169 214 95 hvcurveto
            109 -111 70 189 rlineto
            23 -28 -39 12 -63 hhcurveto
            -236 -188 -234 -274 -65 hvcurveto
            -208 hlineto
            return
          </CharString>
          <CharString index="76">
            -32 callsubr
            hintmask 1001001110000000
            14 callsubr
            hintmask 1001010110000000
            18 callsubr
            hintmask 1001100110000000
            -5 callgsubr
          </CharString>
          <CharString index="77">
            352 28 rmoveto
            75 597 rlineto
            1 hlineto
            9 40 61 6 70 hhcurveto
            184 124 -83 -170 -241 -141 -139 -219 -99 -56 11 10 -40 hvcurveto
            endchar
          </CharString>
          <CharString index="78">
            129 583 40 callsubr
            return
          </CharString>
          <CharString index="79">
            62 55 rmoveto
            101 71 -78 210 hhcurveto
            431 362 383 529 388 -212 261 -363 -252 -85 -74 -5 -103 hvcurveto
            -50 -309 rlineto
            133 hlineto
            63 165 rlineto
            58 50 73 52 145 hhcurveto
            271 104 -254 -287 -14 0 -13 -1 -14 hvcurveto
            -631 20 34 -171 110 6 282 8 198 28 rlinecurve
            -406 -44 -218 -236 -241 hhcurveto
            -171 -69 58 41 -31 hvcurveto
            -60 166 -124 -11 rlineto
            return
          </CharString>
          <CharString index="80">
            -75 callgsubr
            endchar
          </CharString>
          <CharString index="81">
            -640 -15 callsubr
            return
          </CharString>
          <CharString index="82">
            1016 hlineto
            93 356 -123 32 -128 -255 -635 -25 151 192 rlineto
            return
          </CharString>
          <CharString index="83">
            151 25 12 100 rlineto
            -464 hlineto
            -12 -100 146 -24 390 -615 -180 -85 -350 -545 -110 -36 rlinecurve
            -82 -30 rlineto
            endchar
          </CharString>
          <CharString index="84">
            -92 callsubr
            endchar
          </CharString>
          <CharString index="85">
            271 1273 -95 callgsubr
            endchar
          </CharString>
          <CharString index="86">
            177 145 249 177 169 130 callgsubr
            -41 -67 vhcurveto
            -26 9 -14 -21 vvcurveto
            -36 -20 -41 -12 -13 vhcurveto
            -90 -117 -73 -66 -98 -79 rrcurveto
            -133 hlineto
            67 499 rlineto
            return
          </CharString>
          <CharString index="87">
            53 -53 64 hvcurveto
            return
          </CharString>
          <CharString index="88">
            147 152 5 41 rlineto
            -63 7 -47 78 86 vvcurveto
            140 106 154 105 35 vhcurveto
            2 22 -42 71 rlineto
            -180 -74 -211 -164 -271 vvcurveto
            -108 44 -133 134 -36 vhcurveto
            return
          </CharString>
          <CharString index="89">
            143 917 123 return
          </CharString>
          <CharString index="90">
            18 -47 -52 9 -59 156 callgsubr
            3 -164 45 -124 84 -78 rrcurveto
            116 163 rmoveto
            -22 54 -11 69 -1 82 rrcurveto
            257 -6 100 342 226 hhcurveto
            46 39 -13 -25 32 hvcurveto
            -350 -848 rmoveto
            409 775 29 -57 14 -77 2 -93 rlinecurve
            -257 5 -99 -343 -227 hhcurveto
            -55 -44 18 34 -34 hvcurveto
            return
          </CharString>
          <CharString index="91">
            321 263 177 344 221 -156 128 -293 -92 -83 -14 -10 -46 hvcurveto
            -1 -1 72 569 154 -56 callgsubr
            162 callsubr
            133 -24 rlineto
            return
          </CharString>
          <CharString index="92">
            -20 -43 callsubr
            return
          </CharString>
          <CharString index="93">
            -11 callsubr
            -19 return
          </CharString>
          <CharString index="94">
            -10 callgsubr
            endchar
          </CharString>
          <CharString index="95">
            8 callsubr
            endchar
          </CharString>
          <CharString index="96">
            -31 53 rlineto
            -37 -46 -24 -9 -17 hhcurveto
            return
          </CharString>
          <CharString index="97">
            -64 812 rlineto
            -179 hlineto
            -347 -825 -77 -172 -12 186 -53 682 rlineto
            return
          </CharString>
          <CharString index="98">
            -105 -113 -123 -41 -102 hhcurveto
            -180 -48 209 130 14 hvcurveto
            192 6 471 136 311 vvcurveto
            141 -92 109 -194 -285 -224 -260 -313 -65 vhcurveto
            -88 15 -23 48 40 vvcurveto
            33 23 74 17 19 vhcurveto
            -169 35 rlineto
            -25 -16 -31 -88 -54 vvcurveto
            -136 120 -70 160 -15 vhcurveto
            return
          </CharString>
          <CharString index="99">
            177 806 rmoveto
            -419 340 -336 416 416 341 336 419 418 -341 336 -416 -416 -340 -336 -418 vhcurveto
            120 hmoveto
            356 280 292 356 357 280 -292 -356 -357 -280 -291 -357 -356 -280 291 357 vhcurveto
            return
          </CharString>
          <CharString index="100">
            -124 1 -1 -3 -66 -193 -1 -1 rlinecurve
            return
          </CharString>
          <CharString index="101">
            rmoveto
            -113 -50 128 165 29 hvcurveto
            3 19 rlineto
            127 56 129 81 85 34 callgsubr
          </CharString>
          <CharString index="102">
            141 hstem
            1074 205 vstem
            66 -20 rmoveto
            82 95 54 67 52 hvcurveto
            -52 153 170 -69 185 hhcurveto
            413 62 216 139 1 hvcurveto
            111 -59 104 -79 63 vhcurveto
            -140 -131 rlineto
            33 -29 40 -76 -54 vvcurveto
            -153 -77 -76 -214 -144 -124 69 34 -129 vhcurveto
            return
          </CharString>
          <CharString index="103">
            30 -61 22 15 20 8 20 -1 rlinecurve
            19 14 -15 -41 8 hvcurveto
            87 -608 rlineto
            return
          </CharString>
          <CharString index="104">
            70 callgsubr
            112 948 rlineto
            -817 hlineto
            hintmask 01011000
            -13 -102 179 -29 -37 -301 -76 -364 -79 -110 rlinecurve
            -22 -15 -16 -11 -15 hhcurveto
            -22 -95 26 8 -10 hvcurveto
            -50 -223 rlineto
            hintmask 01101000
            -9 4 60 -15 23 hhcurveto
            endchar
          </CharString>
          <CharString index="105">
            133 6 callgsubr
            return
          </CharString>
          <CharString index="106">
            147 -23 -170 -1283 -136 -28 rlineto
            return
          </CharString>
          <CharString index="107">
            151 -23 -144 -1208 -71 233 rlineto
            return
          </CharString>
          <CharString index="108">
            -863 -785 rmoveto
            156 callsubr
            123 -199 -239 -175 -213 -212 -176 96 -134 184 hvcurveto
            29 103 rmoveto
            -93 -42 85 124 126 63 195 149 86 38 -78 -123 -122 -54 -207 -147 hvcurveto
            return
          </CharString>
          <CharString index="109">
            rmoveto
            -176 96 -134 183 253 161 221 219 172 -80 124 -199 -239 -175 -214 -212 vhcurveto
            174 2 rmoveto
            126 62 195 150 86 38 -78 -123 -122 -54 -207 -148 -92 -42 85 124 vhcurveto
            endchar
          </CharString>
          <CharString index="110">
            rmoveto
            -25 callsubr
            hintmask 11001000
            813 1136 rlineto
            hintmask 10101000
            13 callgsubr
          </CharString>
          <CharString index="111">
            -92 -32 140 -134 hhcurveto
            -104 -100 -83 -86 -43 hvcurveto
            endchar
          </CharString>
          <CharString index="112">
            -464 1099 171 callgsubr
            -17 -101 rlineto
            return
          </CharString>
          <CharString index="113">
            -20 -18 callsubr
            return
          </CharString>
          <CharString index="114">
            hhcurveto
            131 5 -99 -95 -150 -109 -176 -166 return
          </CharString>
          <CharString index="115">
            -247 -52 -18 -89 98 -59 rlineto
            return
          </CharString>
          <CharString index="116">
            101 24 callgsubr
            return
          </CharString>
          <CharString index="117">
            66 callgsubr
            hintmask 00010010
            55 callsubr
            hintmask 00100010
            43 callsubr
            hintmask 00001010
            111 callgsubr
            hintmask 00100010
            4 callsubr
          </CharString>
          <CharString index="118">
            123 hstem
            130 callsubr
            vstem
            85 439 rmoveto
            -291 6 138 -168 255 154 callsubr
            291 -5 -140 169 -255 156 callgsubr
            return
          </CharString>
          <CharString index="119">
            -84 -63 -101 -77 -95 hhcurveto
            -86 -55 31 137 98 15 81 15 121 hvcurveto
            78 569 rlineto
            -199 hlineto
            -77 -575 -13 -99 -15 -110 -3 -83 rlinecurve
            -87 -64 -104 -83 -98 hhcurveto
            -86 -54 31 137 99 20 131 9 73 hvcurveto
            return
          </CharString>
          <CharString index="120">
            -54 -61 -25 -11 -22 hhcurveto
            -18 -6 27 48 3 hvcurveto
            7 104 18 109 17 105 rrcurveto
            return
          </CharString>
          <CharString index="121">
            59 498 rlineto
            -200 hlineto
            -59 -498 rlineto
            -214 hlineto
            1 19 1 19 20 vvcurveto
            return
          </CharString>
          <CharString index="122">
            147 827 152 -152 181 return
          </CharString>
          <CharString index="123">
            138 23 12 101 rlineto
            hintmask 11110000
            33 callsubr
          </CharString>
          <CharString index="124">
            149 callsubr
            110 948 rlineto
            -195 hlineto
            -61 -489 rlineto
            -497 hlineto
            return
          </CharString>
          <CharString index="125">
            283 -119 167 -173 -145 -104 -145 -56 -38 vhcurveto
            43 -53 rlineto
            return
          </CharString>
          <CharString index="126">
            506 -10 185 -164 -21 1410 122 -101 101 return
          </CharString>
          <CharString index="127">
            -137 -20 58 callgsubr
            return
          </CharString>
          <CharString index="128">
            181 241 200 275 225 vvcurveto
            124 -40 67 -89 -58 -48 -30 -74 vhcurveto
            -46 33 -39 -42 vvcurveto
            -233 -182 -247 -116 -165 vhcurveto
            -69 -111 -20 128 -155 723 rlineto
            return
          </CharString>
          <CharString index="129">
            hmoveto
            -79 callsubr
            endchar
          </CharString>
          <CharString index="130">
            160 hlineto
            681 1530 rlineto
            -160 hlineto
            return
          </CharString>
          <CharString index="131">
            100 -20 111 1331 100 return
          </CharString>
          <CharString index="132">
            -79 callgsubr
            endchar
          </CharString>
          <CharString index="133">
            151 132 103 108 29 hvcurveto
            -72 75 rlineto
            -70 -47 -66 -47 -89 -113 -76 171 -154 hhcurveto
            return
          </CharString>
          <CharString index="134">
            -78 -80 -36 -24 -68 hhcurveto
            -32 callsubr
            return
          </CharString>
          <CharString index="135">
            200 55 -81 -107 -148 -87 -108 -229 -73 -48 8 43 -61 hvcurveto
            -110 114 rlineto
            endchar
          </CharString>
          <CharString index="136">
            rmoveto
            -587 378 -72 -113 413 -350 -508 -354 39 -117 693 396 rlineto
            return
          </CharString>
          <CharString index="137">
            289 214 269 204 192 -77 108 -169 -171 -125 -115 -57 -42 hvcurveto
            return
          </CharString>
          <CharString index="138">
            -52 27 -272 -42 -17 -83 119 -43 return
          </CharString>
          <CharString index="139">
            110 475 118 return
          </CharString>
          <CharString index="140">
            144 callsubr
            -65 callsubr
            endchar
          </CharString>
          <CharString index="141">
            -94 callsubr
            -30 rlineto
            endchar
          </CharString>
          <CharString index="142">
            hhcurveto
            -413 -237 -441 -310 -250 return
          </CharString>
          <CharString index="143">
            -62 callsubr
            endchar
          </CharString>
          <CharString index="144">
            113 -92 rmoveto
            91 -49 100 158 rlineto
            -23 51 60 -12 69 154 callsubr
            -3 175 -52 131 -96 76 94 158 rcurveline
            -92 49 rlineto
            return
          </CharString>
          <CharString index="145">
            hstemhm
            163 202 return
          </CharString>
          <CharString index="146">
            11 -11 -30 2 -20 hhcurveto
            -190 -131 -170 -82 -40 hvcurveto
            return
          </CharString>
          <CharString index="147">
            146 548 115 return
          </CharString>
          <CharString index="148">
            161 1281 return
          </CharString>
          <CharString index="149">
            -1 -15 -1 -15 -15 vvcurveto
            220 140 rmoveto
            -57 callsubr
            hvcurveto
            1 -203 -289 -116 -160 -7 rrcurveto
            endchar
          </CharString>
          <CharString index="150">
            114 103 79 102 34 hvcurveto
            -59 92 rlineto
            return
          </CharString>
          <CharString index="151">
            -37 -46 -24 -9 -17 hhcurveto
            -20 -13 28 48 5 hvcurveto
            99 948 170 callgsubr
            -70 -571 rlineto
            -25 -44 -74 -16 -90 hhcurveto
            -212 -17 27 314 38 hvcurveto
            return
          </CharString>
          <CharString index="152">
            -37 -45 -24 -9 -18 hhcurveto
            -19 -12 68 49 -3 hvcurveto
            -3 907 rlineto
            -247 hlineto
            -312 -669 -76 -205 -33 205 -135 669 rlineto
            -454 hlineto
            return
          </CharString>
          <CharString index="153">
            -217 -30 -31 0 2 -17 hvcurveto
            -14 -117 rlineto
            -9 19 55 -6 28 hhcurveto
            339 return
          </CharString>
          <CharString index="154">
            1728 -52 callsubr
            return
          </CharString>
          <CharString index="155">
            251 -110 182 -231 -130 -102 -76 -80 -63 return
          </CharString>
          <CharString index="156">
            -283 119 -167 173 145 104 145 56 38 vhcurveto
            -42 53 rlineto
            return
          </CharString>
          <CharString index="157">
            236 73 callgsubr
            return
          </CharString>
          <CharString index="158">
            -79 -108 -61 -35 -99 hhcurveto
            return
          </CharString>
          <CharString index="159">
            178 -29 -31 -139 -57 -378 -128 -291 rlinecurve
            -22 -124 26 8 -10 hvcurveto
            -50 -223 rlineto
            -9 4 59 -15 23 hhcurveto
            endchar
          </CharString>
          <CharString index="160">
            594 0 88 -85 -21 1416 124 -101 101 return
          </CharString>
          <CharString index="161">
            164 -24 164 -123 -20 hstemhm
            return
          </CharString>
          <CharString index="162">
            -2 111 -2 -138 163 hhcurveto
            return
          </CharString>
          <CharString index="163">
            -84 -11 58 callsubr
            return
          </CharString>
          <CharString index="164">
            270 152 269 return
          </CharString>
          <CharString index="165">
            -131 -6 -127 rrcurveto
            return
          </CharString>
          <CharString index="166">
            hlineto
            9 87 -152 31 161 97 callsubr
            return
          </CharString>
          <CharString index="167">
            -898 -78 callsubr
            return
          </CharString>
          <CharString index="168">
            140 115 -11 callgsubr
            return
          </CharString>
          <CharString index="169">
            -20 22 -20 45 -20 hstemhm
            return
          </CharString>
          <CharString index="170">
            hstemhm
            82 211 return
          </CharString>
          <CharString index="171">
            222 -23 113 -108 -38 callsubr
            628 140 388 -20 37 -20 28 -20 hstemhm
            111 193 return
          </CharString>
          <CharString index="172">
            -12 -98 184 -26 -158 -1281 -172 -30 rlineto
            endchar
          </CharString>
          <CharString index="173">
            100 callgsubr
            -101 101 return
          </CharString>
          <CharString index="174">
            hlineto
            -12 -101 rlineto
            return
          </CharString>
          <CharString index="175">
            hhcurveto
            103 64 -110 -192 -246 -121 -369 -277 return
          </CharString>
          <CharString index="176">
            550 -20 113 -113 152 -111 -21 538 100 return
          </CharString>
          <CharString index="177">
            -20 -53 vvcurveto
            -61 -74 -58 -50 -20 vhcurveto
            55 -64 rlineto
            118 29 return
          </CharString>
          <CharString index="178">
            -635 -518 107 1550 -20 44 -20 return
          </CharString>
          <CharString index="179">
            -21 950 212 -23 -20 30 -20 20 13 return
          </CharString>
          <CharString index="180">
            -25 -32 -14 -50 -2 -42 rrcurveto
            -65 -3 return
          </CharString>
          <CharString index="181">
            124 -100 100 -100 116 return
          </CharString>
          <CharString index="182">
            hstemhm
            119 208 return
          </CharString>
          <CharString index="183">
            -570 rmoveto
            92 callsubr
            -139 return
          </CharString>
          <CharString index="184">
            -57 37 rmoveto
            -37 53 33 -16 80 hhcurveto
            270 198 712 565 60 hvcurveto
            17 151 rlineto
            360 hlineto
            return
          </CharString>
          <CharString index="185">
            -13 -100 217 -32 -13 -121 rlineto
            -596 -60 -181 -483 -154 hhcurveto
            -64 -56 39 16 -12 hvcurveto
            return
          </CharString>
          <CharString index="186">
            rmoveto
            70 47 66 46 88 116 73 -171 155 hhcurveto
            return
          </CharString>
          <CharString index="187">
            110 470 122 -117 117 return
          </CharString>
          <CharString index="188">
            -23 -30 -23 -4 -31 hhcurveto
            return
          </CharString>
          <CharString index="189">
            215 -110 205 return
          </CharString>
          <CharString index="190">
            69 550 rlineto
            return
          </CharString>
          <CharString index="191">
            134 289 36 hvcurveto
            26 243 rlineto
            -150 hlineto
            -27 -251 rlineto
            -177 -22 -73 -126 return
          </CharString>
          <CharString index="192">
            536 0 129 345 122 116 146 return
          </CharString>
          <CharString index="193">
            -78 43 58 -31 57 hhcurveto
            113 107 79 62 39 hvcurveto
            return
          </CharString>
          <CharString index="194">
            -20 136 917 130 return
          </CharString>
          <CharString index="195">
            70 74 81 61 return
          </CharString>
          <CharString index="196">
            157 -702 rlineto
            88 hlineto
            338 706 151 334 -18 -336 -7 -578 rlineto
            return
          </CharString>
          <CharString index="197">
            407 800 114 -5 -94 -795 rlineto
            endchar
          </CharString>
          <CharString index="198">
            hvcurveto
            30 243 rlineto
            -152 hlineto
            -31 -251 rlineto
            -177 -22 -72 -126 -139 hhcurveto
            return
          </CharString>
          <CharString index="199">
            133 54 143 84 87 7 callsubr
            return
          </CharString>
          <CharString index="200">
            -513 144 -110 -21 1511 144 return
          </CharString>
          <CharString index="201">
            -49 -22 callgsubr
            return
          </CharString>
          <CharString index="202">
            rmoveto
            142 hlineto
            165 721 rlineto
            -230 hlineto
            return
          </CharString>
          <CharString index="203">
            242 hlineto
            82 166 -16 47 hhcurveto
            return
          </CharString>
          <CharString index="204">
            1280 138 23 12 101 rlineto
            return
          </CharString>
          <CharString index="205">
            0 87 627 130 577 101 return
          </CharString>
          <CharString index="206">
            16 hvcurveto
            -31 53 rlineto
            -37 return
          </CharString>
          <CharString index="207">
            -73 108 hhcurveto
            117 return
          </CharString>
          <CharString index="208">
            hhcurveto
            138 99 -90 -23 10 hvcurveto
            113 172 rlineto
            70 -67 -81 12 -114 hhcurveto
            return
          </CharString>
          <CharString index="209">
            11 rlineto
            -225 hlineto
            -18 -160 rlineto
            224 hlineto
            141 7 -26 -164 rlineto
            return
          </CharString>
          <CharString index="210">
            -87 callsubr
            endchar
          </CharString>
          <CharString index="211">
            200 hlineto
            72 539 rlineto
            29 hlineto
            139 return
          </CharString>
          <CharString index="212">
            -14 -101 291 -22 rlineto
            -249 -803 rmoveto
            return
          </CharString>
          <CharString index="213">
            -25 callgsubr
            hstem
            return
          </CharString>
          <CharString index="214">
            hstemhm
            145 206 return
          </CharString>
          <CharString index="215">
            -39 -2 -130 2 -46 3 rrcurveto
            return
          </CharString>
          <CharString index="216">
            74 callsubr
            hstemhm
            return
          </CharString>
          <CharString index="217">
            -80 -80 -16 -80 hhcurveto
            -272 hlineto
            return
          </CharString>
          <CharString index="218">
            144 -1 -20 21 -20 hstemhm
            337 205 382 169 callgsubr
            return
          </CharString>
          <CharString index="219">
            -136 1 -118 -89 -11 -70 rrcurveto
            -78 -11 48 -16 41 hhcurveto
            endchar
          </CharString>
          <CharString index="220">
            -20 36 -20 28 151 callsubr
            return
          </CharString>
          <CharString index="221">
            127 callgsubr
            64 return
          </CharString>
          <CharString index="222">
            71 -51 53 48 vvcurveto
            return
          </CharString>
          <CharString index="223">
            166 267 hstemhm
            return
          </CharString>
          <CharString index="224">
            -53 -169 rlineto
            return
          </CharString>
          <CharString index="225">
            -518 107 391 -43 callsubr
            return
          </CharString>
          <CharString index="226">
            -12 -100 167 -33 -161 -1272 -146 -30 rlineto
            endchar
          </CharString>
          <CharString index="227">
            hintmask 00000000
            hintmask 11101000
            return
          </CharString>
          <CharString index="228">
            244 124 return
          </CharString>
          <CharString index="229">
            -31 54 rlineto
            -54 -59 -25 -13 -22 hhcurveto
            -22 -6 25 51 6 hvcurveto
            return
          </CharString>
          <CharString index="230">
            -428 -186 1966 hstem
            359 175 vstem
            359 return
          </CharString>
          <CharString index="231">
            112 -148 244 hhcurveto
            232 139 134 289 return
          </CharString>
          <CharString index="232">
            -95 -12 31 -61 93 hhcurveto
            121 110 115 30 18 hvcurveto
            return
          </CharString>
          <CharString index="233">
            -61 callgsubr
            102 callgsubr
            return
          </CharString>
          <CharString index="234">
            113 369 60 357 125 return
          </CharString>
          <CharString index="235">
            -25 callgsubr
            158 -21 return
          </CharString>
          <CharString index="236">
            118 29 142 104 106 return
          </CharString>
          <CharString index="237">
            85 152 callgsubr
            return
          </CharString>
          <CharString index="238">
            -44 -56 -38 -16 -37 hhcurveto
            return
          </CharString>
          <CharString index="239">
            0 88 1333 101 return
          </CharString>
          <CharString index="240">
            -491 hlineto
            -12 -101 return
          </CharString>
          <CharString index="241">
            rlineto
            111 hlineto
            return
          </CharString>
          <CharString index="242">
            -25 callgsubr
            145 callsubr
            28 687 return
          </CharString>
          <CharString index="243">
            41 callgsubr
            hstemhm
            164 202 406 199 return
          </CharString>
          <CharString index="244">
            hstemhm
            85 214 return
          </CharString>
          <CharString index="245">
            -48 24 8 callsubr
            -17 callgsubr
            return
          </CharString>
          <CharString index="246">
            87 1311 129 callgsubr
            return
          </CharString>
          <CharString index="247">
            128 callsubr
            134 callgsubr
            return
          </CharString>
          <CharString index="248">
            -96 -13 58 -37 82 hhcurveto
            113 102 100 26 15 hvcurveto
            return
          </CharString>
          <CharString index="249">
            -20 138 -100 -21 1142 41 callgsubr
            return
          </CharString>
          <CharString index="250">
            rmoveto
            717 hlineto
            18 160 rlineto
            -717 hlineto
            endchar
          </CharString>
          <CharString index="251">
            -495 75 callgsubr
            return
          </CharString>
          <CharString index="252">
            202 266 hstemhm
            return
          </CharString>
          <CharString index="253">
            505 hlineto
            8 88 return
          </CharString>
          <CharString index="254">
            181 25 rlineto
            hintmask 00110100
            12 100 rlineto
            -1085 hlineto
            return
          </CharString>
          <CharString index="255">
            hlineto
            158 1281 164 25 12 100 rlineto
            return
          </CharString>
          <CharString index="256">
            -37 -46 -24 -9 -17 hhcurveto
            -19 -8 27 49 5 hvcurveto
            return
          </CharString>
          <CharString index="257">
            174 -139 190 return
          </CharString>
          <CharString index="258">
            -20 38 callsubr
            return
          </CharString>
          <CharString index="259">
            210 hintmask 00000000
            return
          </CharString>
          <CharString index="260">
            146 25 12 100 rlineto
            -463 hlineto
            -12 -100 return
          </CharString>
          <CharString index="261">
            hhcurveto
            339 238 359 364 -6 hvcurveto
            return
          </CharString>
          <CharString index="262">
            -3 -350 rlineto
            126 hlineto
            68 467 rlineto
            return
          </CharString>
          <CharString index="263">
            252 161 221 219 172 -80 return
          </CharString>
          <CharString index="264">
            -23 113 520 140 return
          </CharString>
          <CharString index="265">
            -104 132 callsubr
            return
          </CharString>
          <CharString index="266">
            -14 -67 15 -50 43 -23 rrcurveto
            return
          </CharString>
          <CharString index="267">
            hhcurveto
            -19 -5 27 48 return
          </CharString>
          <CharString index="268">
            -684 128 hhcurveto
            return
          </CharString>
          <CharString index="269">
            -490 hlineto
            -12 -101 return
          </CharString>
          <CharString index="270">
            10 hvcurveto
            -311 return
          </CharString>
          <CharString index="271">
            hlineto
            70 554 return
          </CharString>
          <CharString index="272">
            -1 -15 -125 -141 -165 -87 -53 return
          </CharString>
          <CharString index="273">
            112 657 110 567 115 return
          </CharString>
          <CharString index="274">
            hhcurveto
            209 106 -213 -325 6 hvcurveto
            return
          </CharString>
          <CharString index="275">
            205 hintmask 00000000
            return
          </CharString>
          <CharString index="276">
            -419 132 return
          </CharString>
          <CharString index="277">
            -148 -30 rlineto
            return
          </CharString>
          <CharString index="278">
            60 1298 return
          </CharString>
          <CharString index="279">
            66 491 rlineto
            return
          </CharString>
        <CharString name=".notdef">
          590 0 219 hstem
          228 229 960 227 vstem
          228 hmoveto
          1416 1416 -1416 hlineto
          230 -1053 rmoveto
          358 342 -359 363 123 125 357 -368 352 366 128 -124 -363 -358 363 -368 -122 -122 -362 368 -347 -368 rlineto
          endchar
        </CharString>
        <CharString name="A">
          -34 callgsubr
          49 callgsubr
          hintmask 00000000
          hintmask 11011000
          -101 callgsubr
          hintmask 11101000
          -33 callsubr
          endchar
        </CharString>
        <CharString name="AE">
          85 callsubr
          535 128 -115 115 -100 101 hstemhm
          -164 1918 hintmask 00000000
          hintmask 11101010
          4 116 -52 callgsubr
          hintmask 11100110
          105 callsubr
          hintmask 11110010
          90 callsubr
        </CharString>
        <CharString name="AEacute">
          85 callsubr
          548 115 -100 101 158 -21 hstemhm
          -164 1918 -634 402 hintmask 00000101
          1185 -59 callgsubr
          hintmask 00000000
          -1116 -1543 -52 callgsubr
          hintmask 11110010
          105 callsubr
          hintmask 11101010
          90 callsubr
        </CharString>
        <CharString name="Aacute">
          -34 callgsubr
          178 -21 49 callgsubr
          -581 402 hintmask 00000000
          hintmask 11010100
          -101 callgsubr
          hintmask 11100100
          -33 callsubr
          hintmask 00001010
          -86 1054 -92 callgsubr
          endchar
        </CharString>
        <CharString name="Abreve">
          -34 callgsubr
          126 150 49 callgsubr
          -777 114 hintmask 00000000
          hintmask 11010100
          -101 callgsubr
          hintmask 11100100
          -33 callsubr
          hintmask 00001010
          -56 1071 25 callsubr
        </CharString>
        <CharString name="Acircumflex">
          -34 callgsubr
          121 378 49 callgsubr
          -830 697 hintmask 00000000
          hintmask 11010100
          -101 callgsubr
          hintmask 11100100
          -33 callsubr
          hintmask 00001010
          -337 1067 -87 callgsubr
        </CharString>
        <CharString name="Adieresis">
          -34 callgsubr
          222 266 49 callgsubr
          -805 -9 callgsubr
          hintmask 00000000
          hintmask 11010100
          -101 callgsubr
          hintmask 11100100
          -33 callsubr
          hintmask 00001011
          159 1167 -82 callsubr
        </CharString>
        <CharString name="Agrave">
          -34 callgsubr
          178 -21 49 callgsubr
          -837 398 hintmask 00000000
          hintmask 11010100
          -101 callgsubr
          hintmask 11100100
          -33 callsubr
          hintmask 00001010
          -77 1054 39 callgsubr
        </CharString>
        <CharString name="Amacron">
          -34 callgsubr
          226 152 49 callgsubr
          -755 531 hintmask 00000000
          hintmask 11010100
          -101 callgsubr
          hintmask 11100100
          -33 callsubr
          hintmask 00001010
          -325 1171 -52 callsubr
          endchar
        </CharString>
        <CharString name="Aogonek">
          60 169 callsubr
          287 87 348 122 797 168 0 -20 hstemhm
          715 260 -198 7 hintmask 00000000
          hintmask 11101100
          8 116 rmoveto
          -119 -29 -9 -87 rlineto
          475 hlineto
          6 87 -160 30 150 318 rlineto
          567 hlineto
          50 -319 -156 -29 -5 -87 rlineto
          209 hlineto
          hintmask 11101010
          -66 -37 -68 -35 -64 -85 18 callgsubr
          53 hvcurveto
          -26 95 rlineto
          hintmask 11101100
          114 callsubr
          4 hvcurveto
          1 63 68 66 91 73 rrcurveto
          187 hlineto
          7 87 -156 32 rlineto
          hintmask 11101010
          -253 1403 rlineto
          hintmask 11101100
          -205 hlineto
          -307 -965 rmoveto
          hintmask 11110010
          -33 callsubr
          endchar
        </CharString>
        <CharString name="Aring">
          60 0 87 348 122 1354 90 hstemhm
          536 144 129 354 -142 304 hintmask 00000000
          hintmask 11111000
          8 116 rmoveto
          -119 -29 -9 -87 rlineto
          475 hlineto
          6 87 -160 30 150 318 rlineto
          567 hlineto
          50 -319 -156 -29 -5 -87 rlineto
          hintmask 11110100
          515 hlineto
          7 87 -156 32 -251 1390 rlineto
          hintmask 11111000
          129 31 113 90 151 vvcurveto
          126 -103 94 -174 -161 -190 -101 -171 -106 59 -82 114 -31 vhcurveto
          hintmask 11110100
          124 75 rmoveto
          -97 -56 69 86 106 93 65 98 89 61 -63 -76 -132 -88 -55 -100 hvcurveto
          -425 -1028 rmoveto
          -33 callsubr
          endchar
        </CharString>
        <CharString name="Atilde">
          -34 callgsubr
          163 165 -24 165 49 callgsubr
          -840 725 hintmask 00000000
          hintmask 11010010
          -101 callgsubr
          hintmask 11100010
          -33 callsubr
          hintmask 00000000
          -352 1162 57 callgsubr
          hintmask 00000101
          -62 callgsubr
          hintmask 00001001
          74 callgsubr
          endchar
        </CharString>
        <CharString name="B">
          -71 callsubr
        </CharString>
        <CharString name="C">
          97 callgsubr
          hstem
          92 216 vstem
          605 -16 -100 callgsubr
          endchar
        </CharString>
        <CharString name="CR">
          -1282 endchar
        </CharString>
        <CharString name="Cacute">
          97 callgsubr
          142 -21 hstemhm
          92 216 409 402 hintmask 11010000
          605 -16 -100 callgsubr
          hintmask 00101000
          177 1627 -92 callgsubr
          endchar
        </CharString>
        <CharString name="Ccaron">
          97 callgsubr
          85 378 hstemhm
          92 216 191 695 hintmask 11010000
          605 -16 -100 callgsubr
          hintmask 00101000
          116 1639 -27 callsubr
        </CharString>
        <CharString name="Ccedilla">
          -57 -463 165 286 115 -97 -21 24 -21 1432 118 hstemhm
          92 216 282 124 hintmask 00000000
          hintmask 10011110
          316 -284 rmoveto
          -16 -151 rlineto
          -16 22 56 -12 53 hhcurveto
          159 124 113 237 38 -4 35 -7 28 hvcurveto
          174 15 126 50 59 20 40 329 rcurveline
          -7 callsubr
          hintmask 11001110
          -74 -42 -132 -29 -91 hhcurveto
          -241 -91 280 265 -5 hvcurveto
          300 -5 124 472 381 hhcurveto
          116 55 -20 -25 36 hvcurveto
          24 -262 153 callgsubr
          66 368 -38 11 rlineto
          17 -63 -111 29 -181 hhcurveto
          -404 -348 -362 -549 10 hvcurveto
          hintmask 10101110
          4 -307 137 -326 356 -9 rrcurveto
          1 -10 0 -11 -13 vvcurveto
          -151 -1 -69 -98 -113 hhcurveto
          hintmask 10011110
          -31 -43 5 9 -17 hvcurveto
          endchar
        </CharString>
        <CharString name="Ccircumflex">
          97 callgsubr
          85 378 hstemhm
          92 216 160 697 hintmask 11010000
          605 -16 -100 callgsubr
          hintmask 00101000
          -74 1640 -87 callgsubr
        </CharString>
        <CharString name="Cdotaccent">
          97 callgsubr
          150 267 hstemhm
          92 216 385 271 hintmask 00101000
          810 1688 -85 callsubr
          hintmask 11010000
          -205 -1704 -100 callgsubr
          endchar
        </CharString>
        <CharString name="D">
          152 -16 117 -101 87 1311 142 callgsubr
          hintmask 00000000
          hintmask 01001100
          26 hmoveto
          249 hlineto
          57 97 -5 -4 45 hvcurveto
          hintmask 10001100
          -67 callgsubr
          hintmask 10010100
          -14 callgsubr
          hintmask 01100100
          133 -23 -162 -13 callgsubr
          hintmask 10001100
          354 45 rmoveto
          159 1269 46 callgsubr
        </CharString>
        <CharString name="Dcaron">
          150 -16 117 -101 87 1311 74 callsubr
          85 378 hstemhm
          494 695 -37 210 hintmask 00000110
          716 1623 -75 callgsubr
          hintmask 00000000
          -477 -1943 rmoveto
          249 hlineto
          57 97 -5 -4 45 hvcurveto
          hintmask 01001001
          -67 callgsubr
          hintmask 10001001
          -14 callgsubr
          hintmask 10010001
          133 -23 -162 -13 callgsubr
          hintmask 01100001
          354 45 rmoveto
          159 1269 46 callgsubr
        </CharString>
        <CharString name="Dcroat">
          149 -58 callgsubr
        </CharString>
        <CharString name="Delta">
          22 callgsubr
        </CharString>
        <CharString name="Deltagreek">
          22 callgsubr
        </CharString>
        <CharString name="E">
          -50 -21 callgsubr
        </CharString>
        <CharString name="Eacute">
          0 callgsubr
          159 -21 76 callgsubr
          -481 402 hintmask 00010100
          747 -59 callgsubr
          hintmask 00000000
          -657 -1659 -101 callsubr
        </CharString>
        <CharString name="Ebreve">
          0 callgsubr
          107 150 76 callgsubr
          -677 114 hintmask 00010100
          777 1628 -79 callgsubr
          hintmask 00000000
          -752 -1628 -101 callsubr
        </CharString>
        <CharString name="Ecaron">
          0 callgsubr
          102 378 76 callgsubr
          -699 695 hintmask 00010100
          686 1623 -75 callgsubr
          hintmask 00000000
          -439 -1943 -101 callsubr
        </CharString>
        <CharString name="Ecircumflex">
          0 callgsubr
          -100 101 101 378 76 callgsubr
          -730 697 hintmask 00000000
          hintmask 11100100
          25 hmoveto
          1050 hlineto
          88 322 -109 30 -119 -211 -547 -24 83 604 447 -17 13 159 -448 -8 72 559 437 -15 47 -189 134 callsubr
          8 312 rlineto
          -934 hlineto
          hintmask 11010100
          47 callgsubr
          -160 -1282 -149 -29 rlineto
          hintmask 00001010
          460 1537 -87 callgsubr
        </CharString>
        <CharString name="Edieresis">
          0 callgsubr
          203 266 76 callgsubr
          -705 -9 callgsubr
          hintmask 00010110
          992 1724 -103 callsubr
          hintmask 00000000
          -547 -1724 -101 callsubr
        </CharString>
        <CharString name="Edotaccent">
          0 callgsubr
          167 267 76 callgsubr
          -505 271 hintmask 00010100
          775 1688 -85 callsubr
          hintmask 00000000
          -750 -1688 -101 callsubr
        </CharString>
        <CharString name="Egrave">
          0 callgsubr
          159 -21 76 callgsubr
          -737 398 hintmask 00010100
          756 1611 -55 callsubr
          hintmask 00000000
          -731 -1611 -101 callsubr
        </CharString>
        <CharString name="Emacron">
          0 callgsubr
          207 152 76 callgsubr
          -655 531 hintmask 00010100
          508 47 callsubr
          hintmask 00000000
          -502 -1880 -101 callsubr
        </CharString>
        <CharString name="Eng">
          236 106 callsubr
          31 1521 vstem
          31 hmoveto
          466 hlineto
          9 88 -156 29 121 1153 58 -185 477 -1085 -24 -140 -146 -93 -139 -48 rlinecurve
          36 -89 191 35 240 96 34 239 rlinecurve
          199 1398 145 23 10 101 rlineto
          -449 hlineto
          -12 -101 141 -22 -135 -1168 -61 195 -473 1096 rlineto
          -349 hlineto
          -17 -101 153 -23 -175 -1283 -136 -28 rlineto
          endchar
        </CharString>
        <CharString name="Eogonek">
          -49 169 callsubr
          287 -29 callsubr
          -100 101 hstemhm
          218 593 -198 545 hintmask 00000000
          hintmask 01110100
          25 hmoveto
          827 hlineto
          hintmask 11110010
          -65 -37 -69 -35 -64 -85 18 callgsubr
          54 hvcurveto
          -27 95 rlineto
          hintmask 11110100
          131 callsubr
          -23 -34 21 64 4 hvcurveto
          1 63 69 66 91 73 rrcurveto
          103 hlineto
          88 322 -109 30 -119 -211 -547 -24 83 604 447 -17 13 159 -448 -8 72 559 437 -15 47 -189 rlineto
          hintmask 01110010
          111 hlineto
          8 312 rlineto
          hintmask 01110100
          -934 hlineto
          hintmask 01101100
          47 callgsubr
          -160 -1282 -149 -29 rlineto
          endchar
        </CharString>
        <CharString name="Eth">
          148 -58 callgsubr
        </CharString>
        <CharString name="Euro">
          106 -16 119 460 132 199 131 394 119 hstemhm
          26 1293 -1096 208 hintmask 00000000
          hintmask 11111000
          26 563 rmoveto
          200 hlineto
          -292 22 135 -287 311 hhcurveto
          139 109 35 25 78 hvcurveto
          49 13 42 10 39 3 46 272 rcurveline
          -121 1 -68 -137 rlineto
          -73 -50 -125 -30 -107 hhcurveto
          -197 -89 178 282 -9 hvcurveto
          535 hlineto
          13 132 rlineto
          hintmask 11110100
          -547 hlineto
          3 70 6 67 10 62 rrcurveto
          575 hlineto
          20 131 rlineto
          -567 hlineto
          247 67 136 147 197 hhcurveto
          147 69 -34 -37 34 hvcurveto
          28 -107 rlineto
          109 hlineto
          54 223 -17 4 -33 9 -24 7 rlinecurve
          23 -72 -86 31 -156 hhcurveto
          -279 -256 -192 -321 -113 hvcurveto
          -175 hlineto
          -19 -131 rlineto
          158 hlineto
          -13 -63 -8 -66 -3 -70 rrcurveto
          -182 hlineto
          endchar
        </CharString>
        <CharString name="F">
          -118 0 88 623 147 544 119 -100 101 hstemhm
          28 1172 120 callsubr
          28 hmoveto
          622 hlineto
          8 88 -269 31 82 601 12 callgsubr
          hintmask 11011000
          119 callgsubr
        </CharString>
        <CharString name="G">
          -1 callgsubr
          hstem
          100 215 vstem
          602 -16 -70 callsubr
        </CharString>
        <CharString name="Gbreve">
          -1 callgsubr
          90 150 hstemhm
          100 215 237 114 hintmask 00010100
          843 1628 -79 callgsubr
          hintmask 11101000
          -241 -1644 -70 callsubr
        </CharString>
        <CharString name="Gcaron">
          -1 callgsubr
          85 378 hstemhm
          100 215 216 695 hintmask 11101000
          602 -16 -105 callsubr
          hintmask 00010100
          151 1639 -27 callsubr
        </CharString>
        <CharString name="Gcircumflex">
          -1 callgsubr
          85 378 hstemhm
          100 215 184 697 hintmask 11101000
          602 -16 -105 callsubr
          hintmask 00010100
          -40 1640 -87 callgsubr
        </CharString>
        <CharString name="Gcommaaccent">
          63 -498 -21 503 118 496 125 697 118 hstemhm
          100 215 266 184 hintmask 10000100
          510 -151 -97 callgsubr
          hintmask 01111000
          -39 34 -70 callsubr
        </CharString>
        <CharString name="Gdotaccent">
          -1 callgsubr
          150 267 hstemhm
          100 215 409 271 hintmask 00010100
          841 1688 -85 callsubr
          hintmask 11101000
          -239 -1704 -70 callsubr
        </CharString>
        <CharString name="Gtilde">
          -1 callgsubr
          127 165 -24 165 hstemhm
          100 215 175 725 hintmask 11100100
          602 -16 -105 callsubr
          hintmask 00000000
          -54 1735 57 callgsubr
          hintmask 00001010
          -62 callgsubr
          hintmask 00010010
          74 callgsubr
          endchar
        </CharString>
        <CharString name="H">
          256 98 callsubr
          hstem
          28 1526 vstem
          -61 callsubr
          endchar
        </CharString>
        <CharString name="Hbar">
          256 0 87 535 130 240 130 299 101 hstem
          19 1542 vstem
          19 hmoveto
          510 hlineto
          8 88 -157 29 63 505 rlineto
          651 hlineto
          -63 -504 -164 -30 -9 -88 rlineto
          518 hlineto
          9 87 -151 31 109 874 rlineto
          204 hlineto
          14 130 rlineto
          -202 hlineto
          35 276 139 23 12 101 rlineto
          144 callsubr
          -35 -276 rlineto
          -650 hlineto
          35 276 154 callgsubr
          134 -23 -35 -276 rlineto
          -197 hlineto
          -14 -130 rlineto
          195 hlineto
          -110 -875 170 callsubr
          432 665 rmoveto
          30 240 rlineto
          650 hlineto
          -30 -240 rlineto
          endchar
        </CharString>
        <CharString name="Hcircumflex">
          256 98 callsubr
          164 callgsubr
          28 1526 -1001 697 hintmask 11101000
          -61 callsubr
          hintmask 00010100
          578 1537 -87 callgsubr
        </CharString>
        <CharString name="I">
          109 callgsubr
          687 vstem
          28 hmoveto
          -102 callsubr
          endchar
        </CharString>
        <CharString name="I.uc">
          -25 callgsubr
          116 callsubr
          28 687 -322 271 hintmask 11010000
          28 hmoveto
          -102 callsubr
          hintmask 00101000
          473 1601 -16 callgsubr
        </CharString>
        <CharString name="IJ">
          158 -25 callgsubr
          134 callgsubr
          -159 881 hintmask 11100000
          28 hmoveto
          -102 callsubr
          hintmask 01010000
          875 -1 -82 callgsubr
          endchar
        </CharString>
        <CharString name="IJ_acutecomb">
          152 128 callsubr
          23 -21 hstemhm
          556 153 347 402 hintmask 11101000
          492 -59 callgsubr
          129 -1915 rmoveto
          36 -89 204 34 228 115 86 271 rlinecurve
          31 95 58 563 72 666 155 22 rcurveline
          11 101 rlineto
          -490 hlineto
          -14 -101 141 -23 -51 -435 -26 -487 -85 -390 rlinecurve
          -29 -130 -147 -161 -180 -51 rrcurveto
          -528 256 rmoveto
          -102 callsubr
          hintmask 00010100
          1084 1526 -92 callgsubr
          endchar
        </CharString>
        <CharString name="Iacute">
          140 callsubr
          -298 402 hintmask 11010000
          28 hmoveto
          -102 callsubr
          hintmask 00101000
          445 1524 -92 callgsubr
          endchar
        </CharString>
        <CharString name="Ibreve">
          -25 callgsubr
          106 150 134 callgsubr
          -494 114 hintmask 11010000
          28 hmoveto
          -102 callsubr
          hintmask 00101000
          475 1541 25 callsubr
        </CharString>
        <CharString name="Icircumflex">
          -25 callgsubr
          101 378 134 callgsubr
          -547 697 hintmask 11010000
          28 hmoveto
          -102 callsubr
          hintmask 00101000
          194 1537 -87 callgsubr
        </CharString>
        <CharString name="Idieresis">
          135 callsubr
          -522 -9 callgsubr
          hintmask 11010000
          28 hmoveto
          -102 callsubr
          hintmask 00101100
          690 1637 -82 callsubr
        </CharString>
        <CharString name="Idotaccent">
          -25 callgsubr
          116 callsubr
          28 687 -322 271 hintmask 11010000
          28 hmoveto
          -102 callsubr
          hintmask 00101000
          473 1601 -16 callgsubr
        </CharString>
        <CharString name="Igrave">
          140 callsubr
          -554 398 hintmask 11010000
          28 hmoveto
          -102 callsubr
          hintmask 00101000
          454 1524 39 callgsubr
        </CharString>
        <CharString name="Imacron">
          -25 callgsubr
          206 152 134 callgsubr
          -472 531 hintmask 11010000
          28 hmoveto
          -102 callsubr
          hintmask 00101000
          206 1641 -52 callsubr
          endchar
        </CharString>
        <CharString name="Iogonek">
          169 callsubr
          287 87 1334 101 hstemhm
          -11 198 32 152 0 338 hintmask 00000000
          hintmask 11111000
          28 hmoveto
          200 hlineto
          -66 -37 -68 -35 -64 -85 18 callgsubr
          53 hvcurveto
          -26 95 rlineto
          114 callsubr
          4 hvcurveto
          1 63 68 66 91 73 rrcurveto
          192 10 callgsubr
          162 1281 rlineto
          hintmask 11110100
          133 callgsubr
          hintmask 11111000
          103 callsubr
        </CharString>
        <CharString name="Itilde">
          -25 callgsubr
          143 165 -24 165 134 callgsubr
          -557 725 hintmask 11001000
          28 hmoveto
          -102 callsubr
          hintmask 00000000
          179 1632 57 callgsubr
          hintmask 00010100
          -62 callgsubr
          hintmask 00100100
          74 callgsubr
          endchar
        </CharString>
        <CharString name="J">
          -556 1421 101 hstem
          -152 881 vstem
          204 86 -82 callgsubr
          endchar
        </CharString>
        <CharString name="Jcircumflex">
          -557 1421 101 164 callgsubr
          -152 881 -561 697 hintmask 10100000
          204 86 -82 callgsubr
          hintmask 01010000
          27 1538 -87 callgsubr
        </CharString>
        <CharString name="K">
          84 73 callgsubr
          hstemhm
          28 1358 131 callgsubr
          -20 callgsubr
          48 380 182 198 54 -96 81 -151 50 -96 rlinecurve
          64 -124 103 -221 52 -7 rrcurveto
          278 hlineto
          14 94 -130 44 -42 25 -42 64 -120 198 rlinecurve
          -56 91 -114 198 -68 115 525 569 rcurveline
          104 23 14 101 rlineto
          -420 67 callsubr
          hintmask 11010000
          118 -23 -611 -710 rlineto
          hintmask 10110000
          89 710 154 -56 callgsubr
          162 callsubr
          rlineto
          hintmask 11010000
          -2 callsubr
          endchar
        </CharString>
        <CharString name="Kcommaaccent">
          74 -496 -21 517 66 callsubr
          hstemhm
          19 1358 -776 184 hintmask 10000100
          530 -149 -97 callgsubr
          hintmask 00000000
          -642 48 rmoveto
          511 10 callgsubr
          48 380 182 198 54 -96 81 -151 50 -96 rlinecurve
          64 -124 103 -221 52 -7 rrcurveto
          278 hlineto
          14 94 -130 44 -42 25 -42 64 -120 198 rlinecurve
          -56 91 -114 198 -68 115 525 569 rcurveline
          104 23 14 101 rlineto
          -420 67 callsubr
          hintmask 01011000
          118 -23 -611 -710 rlineto
          hintmask 01101000
          89 710 154 -56 callgsubr
          162 callsubr
          rlineto
          hintmask 01011000
          -2 callsubr
          endchar
        </CharString>
        <CharString name="L">
          -100 0 132 callgsubr
          hstem
          29 1082 vstem
          29 hmoveto
          28 callgsubr
        </CharString>
        <CharString name="Lacute">
          -100 0 132 callgsubr
          160 -21 hstemhm
          29 1082 -700 402 hintmask 00101000
          476 1613 -92 callgsubr
          hintmask 11010000
          -382 -1661 25 callgsubr
        </CharString>
        <CharString name="Lcaron">
          -100 0 122 893 635 -229 101 hstemhm
          29 1082 -151 180 hintmask 10110000
          29 hmoveto
          -78 callgsubr
          hintmask 01001000
          941 927 -50 callsubr
        </CharString>
        <CharString name="Lcommaaccent">
          -100 -496 -21 517 132 callgsubr
          hstemhm
          29 1082 -607 184 hintmask 10001000
          433 -149 -97 callgsubr
          hintmask 01110000
          -535 48 25 callgsubr
        </CharString>
        <CharString name="Ldot">
          -100 0 122 611 -21 709 101 hstemhm
          29 1082 -219 282 hintmask 10110000
          29 hmoveto
          -78 callgsubr
          hintmask 01001000
          856 751 -54 callsubr
          endchar
        </CharString>
        <CharString name="Lslash">
          -100 2 132 callgsubr
          hstem
          29 1082 vstem
          29 2 rmoveto
          986 hlineto
          96 437 -119 23 -139 -332 -464 -11 65 521 452 190 -35 127 -399 -172 78 615 188 -56 callgsubr
          -524 hlineto
          47 callgsubr
          -89 -708 -213 -91 36 -118 159 67 -54 -431 -148 -29 rlineto
          endchar
        </CharString>
        <CharString name="M">
          -47 callsubr
        </CharString>
        <CharString name="N">
          236 0 139 callsubr
          -19 callgsubr
          endchar
        </CharString>
        <CharString name="NULL">
          -1282 endchar
        </CharString>
        <CharString name="Nacute">
          50 callsubr
          158 -21 117 callgsubr
          -767 402 hintmask 00010100
          855 -59 callgsubr
          hintmask 00000000
          -758 -1659 rmoveto
          -81 callgsubr
          hintmask 10101000
          0 callsubr
          hintmask 11001000
          5 callsubr
          hintmask 10101000
          52 callgsubr
        </CharString>
        <CharString name="Ncaron">
          50 callsubr
          101 378 117 callgsubr
          -985 695 hintmask 00010100
          794 1623 -75 callgsubr
          hintmask 00000000
          -540 -1943 rmoveto
          -81 callgsubr
          hintmask 10101000
          0 callsubr
          hintmask 11001000
          5 callsubr
          hintmask 10101000
          52 callgsubr
        </CharString>
        <CharString name="Ncommaaccent">
          236 -498 -21 519 139 callsubr
          -935 184 hintmask 10000100
          551 -151 -97 callgsubr
          hintmask 00000000
          -650 50 rmoveto
          -81 callgsubr
          hintmask 01011000
          0 callsubr
          hintmask 01101000
          5 callsubr
          hintmask 01011000
          52 callgsubr
        </CharString>
        <CharString name="Ntilde">
          50 callsubr
          143 165 -24 165 117 callgsubr
          -1026 725 hintmask 00000000
          hintmask 00001010
          589 1719 57 callgsubr
          hintmask 00010010
          -62 callgsubr
          hintmask 00001010
          74 callgsubr
          hintmask 00000000
          -499 -1801 rmoveto
          -81 callgsubr
          hintmask 10100100
          0 callsubr
          hintmask 11000100
          5 callsubr
          hintmask 10100100
          52 callgsubr
        </CharString>
        <CharString name="O">
          9 callsubr
          81 callgsubr
          -60 callgsubr
          endchar
        </CharString>
        <CharString name="OE">
          806 -20 120 -100 -29 callsubr
          -107 125 hstemhm
          100 211 hintmask 00000000
          hintmask 10110100
          619 -20 rmoveto
          202 172 106 173 118 hvcurveto
          hintmask 01101100
          -30 -259 rlineto
          872 hlineto
          65 300 -108 31 -96 -190 -511 -24 74 604 395 -17 16 167 -401 -24 75 567 rlineto
          hintmask 01110100
          397 -15 47 -170 134 callsubr
          8 293 rlineto
          -764 hlineto
          -35 -292 rlineto
          hintmask 01101100
          185 -72 -138 124 -209 hhcurveto
          -398 -318 -386 -531 9 hvcurveto
          hintmask 10110100
          -400 7 203 -242 309 hhcurveto
          28 120 rmoveto
          -245 2 -84 233 -7 373 rrcurveto
          hintmask 01101100
          397 -7 209 309 261 hhcurveto
          209 109 -163 -386 6 hvcurveto
          hintmask 10110100
          7 -440 -195 -327 -263 2 rrcurveto
          endchar
        </CharString>
        <CharString name="Oacute">
          9 callsubr
          138 -21 75 callsubr
          420 402 -50 214 hintmask 00101000
          812 -59 callgsubr
          hintmask 11010100
          -127 -1679 -106 callgsubr
          endchar
        </CharString>
        <CharString name="Obreve">
          9 callsubr
          86 150 75 callsubr
          224 114 434 214 hintmask 00101000
          842 1628 -79 callgsubr
          hintmask 11010100
          -222 -1648 -106 callgsubr
          endchar
        </CharString>
        <CharString name="Ocircumflex">
          9 callsubr
          81 378 75 callsubr
          171 697 -96 -63 callsubr
          -87 1524 -87 callgsubr
        </CharString>
        <CharString name="Odieresis">
          9 callsubr
          182 266 75 callsubr
          196 -9 callgsubr
          -111 214 hintmask 00101100
          1057 1724 -103 callsubr
          hintmask 11010010
          -17 -1744 -106 callgsubr
          endchar
        </CharString>
        <CharString name="Ograve">
          9 callsubr
          138 -21 75 callsubr
          164 398 210 214 hintmask 00101000
          821 1611 -55 callsubr
          hintmask 11010100
          -201 -1631 -106 callgsubr
          endchar
        </CharString>
        <CharString name="Ohungarumlaut">
          9 callsubr
          69 390 75 callsubr
          239 849 -316 -63 callsubr
          449 1511 -37 callsubr
        </CharString>
        <CharString name="Omacron">
          9 callsubr
          186 152 75 callsubr
          246 531 -5 214 hintmask 00101000
          573 47 callsubr
          hintmask 11010100
          28 -1900 -106 callgsubr
          endchar
        </CharString>
        <CharString name="Omega">
          -48 callgsubr
        </CharString>
        <CharString name="Omegagreek">
          -48 callgsubr
        </CharString>
        <CharString name="Oslash">
          107 -18 27 callgsubr
          144 -21 81 callgsubr
          -45 callgsubr
          endchar
        </CharString>
        <CharString name="Oslashacute">
          107 -18 27 callgsubr
          136 -21 29 -21 75 callsubr
          463 402 -93 214 hintmask 11011010
          -45 callgsubr
          hintmask 00100100
          408 1412 -92 callgsubr
          endchar
        </CharString>
        <CharString name="Otilde">
          9 callsubr
          123 165 -24 165 75 callsubr
          161 725 -114 214 hintmask 00000000
          hintmask 00010100
          546 1719 57 callgsubr
          hintmask 00100100
          -62 callgsubr
          hintmask 00010100
          74 callgsubr
          hintmask 11001010
          132 -1821 -106 callgsubr
          endchar
        </CharString>
        <CharString name="P">
          -46 callsubr
        </CharString>
        <CharString name="Q">
          107 -361 180 171 111 -98 -21 29 -21 1428 125 hstemhm
          115 208 254 137 381 214 hintmask 00000000
          hintmask 10101111
          583 -18 rmoveto
          -232 -42 180 -111 208 hhcurveto
          116 118 45 40 49 hvcurveto
          -2 138 rlineto
          -27 -59 -98 -16 -54 hhcurveto
          hintmask 10011111
          -146 -129 13 158 -10 hvcurveto
          354 59 249 377 -8 486 rrcurveto
          343 -6 -157 288 -338 104 callgsubr
          hintmask 10101111
          5 -333 147 -287 316 -18 rrcurveto
          hintmask 11001111
          61 119 rmoveto
          -210 -105 225 321 -6 hvcurveto
          450 -8 197 321 262 167 callsubr
          -451 8 -197 -328 -262 hhcurveto
          endchar
        </CharString>
        <CharString name="R">
          70 0 31 callgsubr
          hstemhm
          1013 206 hintmask 00000000
          hintmask 11010010
          47 hmoveto
          -74 callsubr
          hintmask 11000110
          110 callsubr
          hintmask 11001010
          -12 -101 rlineto
          hintmask 11100010
          -85 callgsubr
          -129 -30 rlineto
          404 702 rmoveto
          hintmask 11010010
          -12 callgsubr
          hintmask 11100010
          108 callsubr
          endchar
        </CharString>
        <CharString name="Racute">
          70 0 31 callgsubr
          178 -21 hstemhm
          667 402 -56 206 -17 callgsubr
          hintmask 1101000010000000
          47 hmoveto
          -74 callsubr
          hintmask 1100010010000000
          110 callsubr
          hintmask 1100100010000000
          -12 -101 rlineto
          hintmask 1110000010000000
          -85 callgsubr
          -129 -30 rlineto
          404 702 rmoveto
          hintmask 1101000010000000
          -12 callgsubr
          hintmask 1110000010000000
          108 callsubr
          hintmask 0000001100000000
          272 822 -92 callgsubr
          endchar
        </CharString>
        <CharString name="Rcaron">
          61 0 31 callgsubr
          121 378 hstemhm
          450 695 -141 206 hintmask 0000001100000000
          672 1623 -75 callgsubr
          -17 callgsubr
          -412 -1943 rmoveto
          -74 callsubr
          hintmask 1101000010000000
          110 callsubr
          hintmask 1100010010000000
          -12 -101 rlineto
          hintmask 1100100010000000
          -85 callgsubr
          -129 -30 rlineto
          404 702 rmoveto
          hintmask 1110000010000000
          -12 callgsubr
          hintmask 1101000010000000
          108 callsubr
          endchar
        </CharString>
        <CharString name="Rcommaaccent">
          61 -498 -21 519 31 callgsubr
          hstemhm
          611 184 209 206 hintmask 1000000100000000
          540 -151 -97 callgsubr
          -17 callgsubr
          -633 50 rmoveto
          -74 callsubr
          hintmask 0110100010000000
          110 callsubr
          hintmask 0110001010000000
          -12 -101 rlineto
          hintmask 0110010010000000
          -85 callgsubr
          -129 -30 rlineto
          404 702 rmoveto
          hintmask 0111000010000000
          -12 callgsubr
          hintmask 0110100010000000
          108 callsubr
          endchar
        </CharString>
        <CharString name="S">
          43 callgsubr
          hstem
          195 202 385 203 vstem
          54 65 -35 callsubr
        </CharString>
        <CharString name="Sacute">
          43 callgsubr
          138 -21 161 callgsubr
          220 402 -237 203 hintmask 11010100
          54 65 -102 callgsubr
          hintmask 00101000
          586 1264 -92 callgsubr
          endchar
        </CharString>
        <CharString name="Scaron">
          43 callgsubr
          81 378 161 callgsubr
          2 695 -312 203 hintmask 11010100
          54 65 -102 callgsubr
          hintmask 00101000
          525 1276 -27 callsubr
        </CharString>
        <CharString name="Scircumflex">
          43 callgsubr
          81 378 161 callgsubr
          -29 697 -283 203 hintmask 11010100
          54 65 -102 callgsubr
          hintmask 00101000
          335 1277 -87 callgsubr
        </CharString>
        <CharString name="T">
          -48 0 165 callgsubr
          83 1225 120 callgsubr
          193 hmoveto
          67 callgsubr
          rlineto
          hintmask 10110000
          166 1297 rlineto
          hintmask 11010000
          -76 callsubr
        </CharString>
        <CharString name="Tbar">
          -48 0 94 626 131 552 118 -107 108 hstemhm
          83 1225 120 callsubr
          193 hmoveto
          67 callgsubr
          77 603 rlineto
          297 hlineto
          16 131 rlineto
          -296 hlineto
          hintmask 11011000
          72 563 rlineto
          hintmask 11101000
          321 -21 -7 -342 134 callsubr
          67 471 rlineto
          -1148 hlineto
          -77 -471 116 2 96 341 316 20 -72 -563 rlineto
          -241 hlineto
          -16 -131 rlineto
          240 hlineto
          -76 -603 -244 -23 rlineto
          endchar
        </CharString>
        <CharString name="Tcaron">
          -48 0 56 callgsubr
          164 callgsubr
          83 1225 -856 695 hintmask 00010100
          674 1623 -75 callgsubr
          hintmask 00000000
          -259 -1943 rmoveto
          67 callgsubr
          rlineto
          hintmask 11001000
          166 1297 rlineto
          hintmask 10101000
          -76 callsubr
        </CharString>
        <CharString name="Thorn">
          -46 0 87 225 113 668 119 216 102 hstem
          994 204 vstem
          28 hmoveto
          527 hlineto
          8 88 -174 29 25 198 rlineto
          -3 36 51 0 87 hhcurveto
          344 266 204 314 242 -152 140 -305 -70 -77 -5 -12 -70 hvcurveto
          27 210 154 23 11 102 rlineto
          -491 hlineto
          -12 -102 133 -23 -161 -1288 102 callgsubr
          391 349 rmoveto
          80 638 rlineto
          11 50 60 8 67 hhcurveto
          244 60 -98 -208 4 hvcurveto
          -206 3 -133 -156 -278 hhcurveto
          -47 -53 3 8 -57 hvcurveto
          endchar
        </CharString>
        <CharString name="U">
          24 callsubr
          hstem
          145 206 vstem
          -66 callsubr
          endchar
        </CharString>
        <CharString name="Uacute">
          24 callsubr
          158 -21 107 callsubr
          382 402 hintmask 00101000
          798 -59 callgsubr
          hintmask 11010000
          -588 -1231 -105 callgsubr
          endchar
        </CharString>
        <CharString name="Ubreve">
          24 callsubr
          106 150 107 callsubr
          186 114 hintmask 00101000
          828 1628 -79 callgsubr
          hintmask 11010000
          -683 -1200 -105 callgsubr
          endchar
        </CharString>
        <CharString name="Ucircumflex">
          24 callsubr
          101 378 107 callsubr
          133 697 hintmask 11010000
          -66 callsubr
          hintmask 00101000
          402 1196 -87 callgsubr
        </CharString>
        <CharString name="Udieresis">
          24 callsubr
          202 266 107 callsubr
          158 -9 callgsubr
          hintmask 00101100
          1043 1724 -103 callsubr
          hintmask 11010000
          -478 -1296 -105 callgsubr
          endchar
        </CharString>
        <CharString name="Ugrave">
          24 callsubr
          158 -21 107 callsubr
          126 398 hintmask 00101000
          807 1611 -55 callsubr
          hintmask 11010000
          -662 -1183 -105 callgsubr
          endchar
        </CharString>
        <CharString name="Uhungarumlaut">
          24 callsubr
          89 390 107 callsubr
          201 849 hintmask 11010000
          -66 callsubr
          hintmask 00101000
          938 1183 -37 callsubr
        </CharString>
        <CharString name="Umacron">
          24 callsubr
          206 152 107 callsubr
          208 531 hintmask 00101000
          559 47 callsubr
          hintmask 11010000
          -433 -1452 -105 callgsubr
          endchar
        </CharString>
        <CharString name="Uogonek">
          100 169 callsubr
          267 111 1331 100 hstemhm
          133 488 -476 206 72 201 hintmask 00000000
          hintmask 11101100
          145 428 rmoveto
          -275 5 159 -173 292 8 8 1 8 hhcurveto
          -54 -32 -55 -37 -52 -69 -25 -33 -14 -50 -2 -41 rrcurveto
          -65 -3 50 100 callsubr
          84 49 48 53 hvcurveto
          -27 95 rlineto
          hintmask 11110000
          131 callsubr
          -23 -33 21 65 3 hvcurveto
          2 45 56 76 69 73 253 47 154 187 51 400 104 771 rcurveline
          124 23 12 101 rlineto
          -434 hlineto
          -11 -101 134 -24 -103 -771 rlineto
          -349 -40 -133 -186 -227 hhcurveto
          hintmask 11101100
          -174 -103 112 215 -4 hvcurveto
          -1 57 4 62 8 74 104 786 rcurveline
          153 25 11 100 rlineto
          hintmask 11110000
          -491 hlineto
          -12 -100 133 -24 rlineto
          hintmask 11101100
          -107 -805 rlineto
          -6 -59 -2 -54 -52 vvcurveto
          endchar
        </CharString>
        <CharString name="Uring">
          24 callsubr
          5 88 296 90 107 callsubr
          175 145 341 143 hintmask 11001000
          -66 callsubr
          hintmask 00110110
          664 1099 17 callgsubr
        </CharString>
        <CharString name="Utilde">
          24 callsubr
          143 165 -24 165 107 callsubr
          123 725 hintmask 00000000
          hintmask 00010100
          532 1719 57 callgsubr
          hintmask 00100100
          -62 callgsubr
          hintmask 00010100
          74 callgsubr
          hintmask 11001000
          -329 -1373 -105 callgsubr
          endchar
        </CharString>
        <CharString name="V">
          -56 0 -21 1419 124 -101 101 hstemhm
          71 1294 131 callgsubr
          430 -21 rmoveto
          178 12 641 1408 106 23 10 100 rlineto
          -415 hlineto
          -10 -100 rlineto
          hintmask 11010000
          136 -24 -413 -947 -94 -276 -27 276 -135 947 rlineto
          hintmask 10110000
          152 23 10 101 rlineto
          -488 hlineto
          -10 -101 123 -23 rlineto
          endchar
        </CharString>
        <CharString name="W">
          19 callsubr
          hstemhm
          28 1969 hintmask 00000000
          hintmask 01011000
          348 -10 rmoveto
          205 hlineto
          387 1020 115 -1020 rlineto
          207 hlineto
          599 1408 121 23 15 101 rlineto
          -429 hlineto
          -11 -101 135 -23 -406 -996 rlineto
          hintmask 10101000
          -74 -227 -18 264 -104 961 150 21 rlineto
          hintmask 10011000
          20 101 rlineto
          -483 hlineto
          -11 -101 119 -20 14 -121 -343 -906 -57 -199 -36 264 -117 963 156 19 11 101 rlineto
          -473 hlineto
          -12 -101 123 -23 rlineto
          endchar
        </CharString>
        <CharString name="Wacute">
          19 callsubr
          158 -21 hstemhm
          28 1969 -1048 402 hintmask 00001010
          1014 -59 callgsubr
          hintmask 00000000
          -601 -1669 -67 callsubr
        </CharString>
        <CharString name="Wcircumflex">
          19 callsubr
          164 callgsubr
          28 1969 -1297 697 hintmask 00000000
          hintmask 01010100
          348 -10 rmoveto
          205 hlineto
          387 1020 115 -1020 rlineto
          207 hlineto
          599 1408 121 23 15 101 rlineto
          -429 hlineto
          -11 -101 135 -23 -406 -996 rlineto
          hintmask 10100100
          -74 -227 -18 264 -104 961 150 21 rlineto
          hintmask 10010100
          20 101 rlineto
          -483 hlineto
          -11 -101 119 -20 14 -121 -343 -906 -57 -199 -36 264 -117 963 156 19 11 101 rlineto
          -473 hlineto
          -12 -101 123 -23 rlineto
          hintmask 00001010
          612 226 -87 callgsubr
        </CharString>
        <CharString name="Wdieresis">
          19 callsubr
          145 callsubr
          28 1969 -1272 -9 callgsubr
          hintmask 00001011
          1259 1724 -103 callsubr
          hintmask 00000000
          -491 -1734 -67 callsubr
        </CharString>
        <CharString name="Wgrave">
          19 callsubr
          158 -21 hstemhm
          28 1969 -1304 398 hintmask 00001010
          1023 1611 -55 callsubr
          hintmask 00000000
          -675 -1621 -67 callsubr
        </CharString>
        <CharString name="X">
          -27 callgsubr
        </CharString>
        <CharString name="Y">
          158 callsubr
          hstem
          171 callsubr
          vstem
          -96 callsubr
          endchar
        </CharString>
        <CharString name="Yacute">
          126 callgsubr
          -687 402 hintmask 11010000
          -96 callsubr
          hintmask 00101000
          484 1523 -92 callgsubr
          endchar
        </CharString>
        <CharString name="Ycircumflex">
          158 callsubr
          164 callgsubr
          171 callsubr
          -936 697 hintmask 11010000
          -96 callsubr
          hintmask 00101000
          233 1536 -87 callgsubr
        </CharString>
        <CharString name="Ydieresis">
          158 callsubr
          145 callsubr
          171 callsubr
          -911 -9 callgsubr
          hintmask 11010000
          -96 callsubr
          hintmask 00101100
          729 1636 -82 callsubr
        </CharString>
        <CharString name="Ygrave">
          126 callgsubr
          -943 398 hintmask 11010000
          -96 callsubr
          hintmask 00101000
          493 1523 39 callgsubr
        </CharString>
        <CharString name="Z">
          72 callgsubr
          hstemhm
          -5 1214 120 callgsubr
          22 hmoveto
          -25 callsubr
          hintmask 10110000
          813 1136 rlineto
          hintmask 11010000
          13 callgsubr
        </CharString>
        <CharString name="Zacute">
          72 callgsubr
          158 -21 hstemhm
          -5 1214 -629 402 hintmask 00000000
          hintmask 11001000
          22 hmoveto
          -25 callsubr
          hintmask 10101000
          813 1136 rlineto
          hintmask 11001000
          -36 callsubr
          hintmask 00010100
          650 1522 -92 callgsubr
          endchar
        </CharString>
        <CharString name="Zcaron">
          72 callgsubr
          164 callgsubr
          -5 1214 -790 695 hintmask 00010100
          641 1623 -75 callgsubr
          hintmask 00000000
          -397 -1943 3 callsubr
        </CharString>
        <CharString name="Zdotaccent">
          72 callgsubr
          116 callsubr
          -5 1214 -596 271 hintmask 00010100
          730 1688 -85 callsubr
          hintmask 00000000
          -708 -1688 3 callsubr
        </CharString>
        <CharString name="a">
          -6 callgsubr
          hstem
          82 211 vstem
          -107 callgsubr
          endchar
        </CharString>
        <CharString name="aacute">
          -6 callgsubr
          87 493 63 callsubr
          322 461 hintmask 11010000
          -107 callgsubr
          hintmask 00101000
          245 1127 7 callgsubr
        </CharString>
        <CharString name="abreve">
          -6 callgsubr
          137 150 63 callsubr
          145 113 hintmask 11010000
          -107 callgsubr
          hintmask 00101000
          293 1177 -91 callsubr
        </CharString>
        <CharString name="acircumflex">
          -6 callgsubr
          65 423 63 callsubr
          67 697 hintmask 11010000
          -107 callgsubr
          hintmask 00101000
          -16 1106 23 callgsubr
        </CharString>
        <CharString name="acute">
          -723 1250 493 hstem
          50 461 vstem
          115 1250 7 callgsubr
        </CharString>
        <CharString name="acute.cap">
          -755 1680 -21 hstem
          37 402 vstem
          102 -59 callgsubr
          endchar
        </CharString>
        <CharString name="adieresis">
          -6 callgsubr
          63 callsubr
          vstemhm
          -107 callgsubr
          506 1263 -53 callgsubr
        </CharString>
        <CharString name="ae">
          430 -74 callgsubr
        </CharString>
        <CharString name="aeacute">
          430 -20 141 339 80 callsubr
          88 493 63 callsubr
          507 461 153 209 hintmask 00001010
          865 1250 -88 callsubr
          hintmask 00000000
          -408 -1332 rmoveto
          167 138 164 148 71 hvcurveto
          -195 31 116 -117 217 hhcurveto
          206 167 124 79 59 hvcurveto
          -47 84 rlineto
          -105 -118 -131 -41 -108 hhcurveto
          -175 -21 170 169 10 hvcurveto
          190 6 460 132 -1 311 rrcurveto
          141 -87 119 -194 -7 vhcurveto
          -114 -4 -106 -50 -90 -79 18 133 rcurveline
          -118 -34 rlineto
          18 -56 -76 16 -66 hhcurveto
          -413 -239 -441 -310 -267 100 -164 210 hvcurveto
          587 590 rmoveto
          hintmask 11100101
          169 19 100 306 196 hhcurveto
          73 46 -46 -104 1 hvcurveto
          hintmask 11010101
          -203 -278 -115 -157 -7 vhcurveto
          hintmask 11100101
          -547 -446 rmoveto
          -90 -49 101 210 244 126 361 285 54 49 -10 -29 37 hvcurveto
          -74 -451 2 3 -7 -41 -4 -41 -1 -41 rlinecurve
          -1 vlineto
          -101 -50 -129 -204 -149 hhcurveto
          endchar
        </CharString>
        <CharString name="afii10017">
          -34 callgsubr
          49 callgsubr
          hintmask 00000000
          hintmask 11011000
          -101 callgsubr
          hintmask 11101000
          -33 callsubr
          endchar
        </CharString>
        <CharString name="afii10018">
          -41 -16 110 -94 87 717 127 480 110 -99 100 hstemhm
          951 168 callsubr
          hintmask 10110100
          2 hmoveto
          hintmask 01110100
          270 160 callgsubr
          hintmask 10110100
          354 234 244 327 237 -154 139 -291 -91 -100 -14 -10 -45 hvcurveto
          63 505 482 -1 40 -256 rlineto
          130 hlineto
          26 367 rlineto
          -1015 hlineto
          hintmask 01101100
          -12 -100 156 -25 -158 -1280 -175 -30 rlineto
          hintmask 10110100
          365 26 rmoveto
          84 676 rlineto
          9 42 74 6 69 137 callgsubr
          -247 -114 -36 8 11 -41 hvcurveto
          endchar
        </CharString>
        <CharString name="afii10019">
          -71 callsubr
        </CharString>
        <CharString name="afii10020">
          -204 0 87 1320 114 -97 98 hstemhm
          4 1104 120 callgsubr
          4 hmoveto
          689 hlineto
          9 87 -317 31 160 1294 61 callgsubr
          hintmask 10110000
          65 callsubr
        </CharString>
        <CharString name="afii10021">
          60 0 123 1288 111 -100 100 hstemhm
          1034 322 -312 185 hintmask 00000000
          hintmask 11001000
          -5 121 rmoveto
          -1 2 rlineto
          -1 -3 -47 -453 141 callgsubr
          868 44 callgsubr
          126 hlineto
          22 105 27 106 23 136 -4 4 rcurveline
          3 114 170 callgsubr
          hintmask 10101000
          161 1273 rlineto
          hintmask 10110000
          143 26 rlineto
          hintmask 11010000
          12 100 rlineto
          -1040 hlineto
          hintmask 10101000
          -13 -100 217 -25 -15 -128 -91 -744 -223 -334 -65 -68 rlinecurve
          hintmask 11001000
          -137 hlineto
          309 hmoveto
          71 87 184 407 75 640 17 154 rcurveline
          354 hlineto
          -164 -1288 rlineto
          endchar
        </CharString>
        <CharString name="afii10022">
          -49 -21 callgsubr
        </CharString>
        <CharString name="afii10023">
          94 callsubr
          203 266 76 callgsubr
          -707 -9 callgsubr
          hintmask 00010110
          990 1724 -103 callsubr
          hintmask 00000000
          -545 -1724 -101 callsubr
        </CharString>
        <CharString name="afii10024">
          79 callgsubr
          hstemhm
          -30 2138 hintmask 00000000
          hintmask 11011000
          -30 hmoveto
          253 hlineto
          126 346 684 137 hhcurveto
          110 hlineto
          -71 -567 -148 138 callgsubr
          501 10 callgsubr
          71 567 rlineto
          134 hlineto
          134 184 -684 127 hhcurveto
          256 hlineto
          12 87 -91 30 -126 66 -192 525 -154 77 rlinecurve
          526 611 149 26 13 100 rlineto
          -462 hlineto
          -13 -101 rlineto
          hintmask 11101000
          71 callgsubr
          hintmask 11011000
          -2 callgsubr
          hintmask 11101000
          -349 603 rlineto
          hintmask 11011000
          -24 callsubr
        </CharString>
        <CharString name="afii10025">
          -126 -12 113 callgsubr
          hstemhm
          98 104 640 224 -210 211 120 callsubr
          15 callgsubr
          hintmask 11100100
          -42 callgsubr
          hintmask 11111000
          26 callgsubr
          endchar
        </CharString>
        <CharString name="afii10026">
          317 109 callgsubr
          1592 vstem
          28 hmoveto
          -23 callsubr
        </CharString>
        <CharString name="afii10027">
          317 -25 callgsubr
          125 99 hstemhm
          28 1592 -1077 210 hintmask 00101000
          918 1647 -98 callsubr
          hintmask 11010000
          -890 -1647 -23 callgsubr
        </CharString>
        <CharString name="afii10028">
          44 82 callgsubr
          627 101 hstem
          28 1388 vstem
          28 hmoveto
          -39 callgsubr
          76 604 155 -56 callgsubr
          -488 34 callsubr
        </CharString>
        <CharString name="afii10029">
          69 -16 208 -192 88 -83 -21 1428 110 -100 100 hstemhm
          -56 1464 hintmask 00000000
          hintmask 00110100
          -56 36 rmoveto
          -36 53 34 -16 80 hhcurveto
          114 100 124 191 83 hvcurveto
          113 258 81 376 35 328 17 151 rcurveline
          360 hlineto
          hintmask 01001100
          106 callgsubr
          518 hlineto
          9 86 -153 31 160 1280 147 callsubr
          hintmask 10001100
          -12 -100 216 -32 -13 -121 -41 -407 -96 -353 -106 -183 rlinecurve
          -85 -49 -52 -49 -51 hhcurveto
          -63 -54 38 16 -12 hvcurveto
          endchar
        </CharString>
        <CharString name="afii10030">
          -47 callsubr
        </CharString>
        <CharString name="afii10031">
          256 98 callsubr
          hstem
          28 1526 vstem
          -61 callsubr
          endchar
        </CharString>
        <CharString name="afii10032">
          107 24 callgsubr
          81 callgsubr
          -60 callgsubr
          endchar
        </CharString>
        <CharString name="afii10033">
          210 0 100 callgsubr
          -100 100 hstemhm
          28 1492 120 callgsubr
          42 callgsubr
          rlineto
          hintmask 10110000
          162 1281 154 25 rlineto
          hintmask 11010000
          9 100 rlineto
          -1330 hlineto
          hintmask 10110000
          119 callsubr
        </CharString>
        <CharString name="afii10034">
          -46 callsubr
        </CharString>
        <CharString name="afii10035">
          97 callgsubr
          hstem
          92 216 vstem
          605 -16 -100 callgsubr
          endchar
        </CharString>
        <CharString name="afii10036">
          -48 0 165 callgsubr
          83 1225 120 callgsubr
          193 hmoveto
          67 callgsubr
          rlineto
          hintmask 10110000
          166 1297 rlineto
          hintmask 11010000
          -76 callsubr
        </CharString>
        <CharString name="afii10037">
          50 callgsubr
          hstemhm
          106 1248 131 callgsubr
          182 15 rmoveto
          -22 38 59 -16 68 hhcurveto
          211 92 232 130 65 hvcurveto
          523 1058 104 25 12 100 rlineto
          -412 67 callsubr
          hintmask 11010000
          153 -24 -333 -730 -67 -185 -37 183 -210 732 rlineto
          hintmask 10110000
          166 25 10 100 rlineto
          -494 hlineto
          -12 -101 122 -24 339 -1086 rlineto
          -119 -43 -64 -20 -114 hhcurveto
          -146 hlineto
          endchar
        </CharString>
        <CharString name="afii10038">
          176 -47 100 1431 101 hstem
          57 201 998 201 vstem
          382 -47 rmoveto
          538 hlineto
          12 95 -170 32 16 124 rlineto
          430 44 249 301 354 vvcurveto
          227 -106 197 -425 22 vhcurveto
          14 109 177 26 12 101 rlineto
          -539 hlineto
          -12 -101 171 -26 -15 -111 rlineto
          -435 -40 -242 -287 -357 vvcurveto
          -233 108 -208 421 -22 vhcurveto
          -15 -119 -177 -28 rlineto
          396 245 rmoveto
          124 959 rlineto
          270 -30 72 -159 -176 vvcurveto
          -268 -89 -283 -377 -43 vhcurveto
          -191 hmoveto
          -272 31 -69 176 176 vvcurveto
          227 64 307 401 42 vhcurveto
          endchar
        </CharString>
        <CharString name="afii10039">
          -27 callgsubr
        </CharString>
        <CharString name="afii10040">
          270 0 127 1270 125 -100 100 hstemhm
          1022 316 -126 274 131 callgsubr
          -16 hmoveto
          hintmask 10101000
          1233 hlineto
          12 56 callsubr
          hintmask 10110000
          126 hlineto
          23 105 46 229 23 136 rrcurveto
          -250 hlineto
          159 1270 rlineto
          hintmask 10101000
          141 24 12 100 rlineto
          hintmask 10110000
          -464 hlineto
          -12 -100 130 -25 -155 -1270 rlineto
          -603 hlineto
          160 1270 154 25 11 100 rlineto
          162 callsubr
          rlineto
          hintmask 11010000
          133 -24 -159 -1280 -191 -30 rlineto
          endchar
        </CharString>
        <CharString name="afii10041">
          1 0 87 512 141 681 101 hstem
          161 211 vstem
          606 hmoveto
          512 hlineto
          9 87 -139 30 41 callsubr
          134 -56 callgsubr
          -68 callsubr
          -168 -30 rlineto
          endchar
        </CharString>
        <CharString name="afii10042">
          803 0 116 1306 100 hstem
          29 2045 vstem
          29 hmoveto
          1893 hlineto
          12 100 -181 28 157 1270 153 24 11 100 rlineto
          -479 149 callgsubr
          -482 hlineto
          162 1281 154 25 11 100 rlineto
          -482 hlineto
          -12 -100 133 -25 -61 callgsubr
          rlineto
          -498 148 callsubr
          -487 112 callgsubr
        </CharString>
        <CharString name="afii10043">
          827 0 116 1306 100 hstemhm
          1594 325 -126 275 120 callgsubr
          29 hmoveto
          1769 hlineto
          13 -84 -12 58 callsubr
          hintmask 11100000
          126 hlineto
          23 105 48 217 22 137 rrcurveto
          -261 hlineto
          159 1281 rlineto
          hintmask 11010000
          153 24 11 100 rlineto
          hintmask 11100000
          -474 149 callgsubr
          -488 hlineto
          159 1282 154 24 11 100 rlineto
          -478 hlineto
          -12 -100 133 -25 -61 callgsubr
          rlineto
          -503 148 callsubr
          -482 112 callgsubr
        </CharString>
        <CharString name="afii10044">
          242 -16 110 -94 87 717 127 477 113 -100 101 hstemhm
          1302 168 callsubr
          hintmask 01110100
          346 hmoveto
          262 hlineto
          82 181 -16 47 hhcurveto
          hintmask 10101100
          355 234 244 327 237 -155 139 -290 -91 -100 -14 -10 -45 hvcurveto
          61 491 155 23 rlineto
          hintmask 01110100
          10 101 rlineto
          -834 hlineto
          -82 -471 rlineto
          130 hlineto
          104 354 315 7 -163 -1295 -165 -30 rlineto
          hintmask 10110100
          371 26 rmoveto
          84 676 rlineto
          9 41 74 6 70 137 callgsubr
          -248 -113 -37 8 11 -40 hvcurveto
          endchar
        </CharString>
        <CharString name="afii10045">
          547 98 callgsubr
          567 101 hstemhm
          944 205 23 687 hintmask 01010100
          1172 hmoveto
          -102 callsubr
          hintmask 00000000
          -1153 -87 rmoveto
          96 callsubr
          hintmask 01111000
          -16 callsubr
          hintmask 10111000
          -161 -1280 170 callsubr
          hintmask 01111000
          -30 callsubr
        </CharString>
        <CharString name="afii10046">
          -72 98 callgsubr
          567 101 hstemhm
          944 168 callsubr
          hintmask 01111000
          28 hmoveto
          96 callsubr
          hintmask 10111000
          -16 callsubr
          hintmask 01111000
          -161 -1280 170 callsubr
          hintmask 10111000
          -30 callsubr
        </CharString>
        <CharString name="afii10047">
          148 callgsubr
          hstem
          1011 226 vstem
          -28 callsubr
          endchar
        </CharString>
        <CharString name="afii10048">
          760 -20 120 -100 87 637 119 574 125 -121 101 hstemhm
          777 208 772 214 hintmask 00000000
          hintmask 01110110
          -20 callgsubr
          77 607 rlineto
          313 hlineto
          -2 -35 -1 -35 1 -35 rrcurveto
          hintmask 10110110
          -344 5 158 -295 338 155 callgsubr
          343 -6 -157 288 -338 hhcurveto
          -345 -267 -286 -413 -66 hvcurveto
          -311 hlineto
          hintmask 01101110
          70 555 133 callgsubr
          -87 callsubr
          hintmask 10110110
          948 559 rmoveto
          450 -8 197 321 262 167 callsubr
          -451 8 -197 -328 -262 hhcurveto
          -210 -105 225 321 -6 hvcurveto
          endchar
        </CharString>
        <CharString name="afii10049">
          35 0 87 585 114 635 117 -116 100 hstemhm
          224 210 120 callsubr
          -86 hmoveto
          254 hlineto
          100 199 549 123 155 hvcurveto
          45 1 191 -1 41 3 -72 -558 rcurveline
          -147 -30 -10 -87 rlineto
          501 hlineto
          8 87 -157 30 rlineto
          hintmask 11011000
          160 1280 154 25 11 100 rlineto
          -247 hlineto
          -100 -78 16 -99 hhcurveto
          hintmask 11101000
          -383 -216 -207 -302 -155 86 -128 144 -52 hvcurveto
          -164 -100 -185 -453 -106 -25 -74 -30 rcurveline
          836 700 rmoveto
          -194 -133 103 180 210 89 142 252 116 64 -21 -2 33 hvcurveto
          -74 -606 rlineto
          -5 -42 -61 -1 -50 hhcurveto
          endchar
        </CharString>
        <CharString name="afii10050">
          -280 0 87 1310 124 -97 98 hstemhm
          -35 1235 120 callgsubr
          -35 hmoveto
          730 hlineto
          10 87 -320 31 160 1294 576 -29 79 498 rlineto
          -140 hlineto
          -106 -359 rlineto
          -800 hlineto
          hintmask 10110000
          -12 -98 203 -28 -158 -1279 -212 -30 rlineto
          endchar
        </CharString>
        <CharString name="afii10051">
          312 -5 108 -103 87 652 132 541 109 hstemhm
          1321 222 hintmask 00000000
          hintmask 01111000
          286 hmoveto
          588 hlineto
          12 87 -200 32 68 558 rlineto
          24 75 120 38 118 hhcurveto
          198 56 -118 -186 hvcurveto
          hintmask 10111000
          -115 -59 -186 -147 -31 vhcurveto
          -28 -7 -50 -4 -16 2 rrcurveto
          hintmask 01111000
          -7 -93 rlineto
          hintmask 10111000
          -4 16 28 -2 28 hhcurveto
          288 169 304 211 139 -46 222 -334 -158 -153 -51 -37 -85 hvcurveto
          79 637 413 -15 155 callsubr
          -1285 hlineto
          -82 -467 rlineto
          129 hlineto
          105 350 331 15 -159 -1301 rlineto
          hintmask 01111000
          -191 -32 rlineto
          endchar
        </CharString>
        <CharString name="afii10052">
          -204 0 87 1320 114 159 -21 hstemhm
          4 1104 -570 402 hintmask 00101000
          603 -59 callgsubr
          hintmask 00000000
          -534 -1659 rmoveto
          689 hlineto
          9 87 -317 31 160 1294 61 callgsubr
          hintmask 11010000
          65 callsubr
        </CharString>
        <CharString name="afii10053">
          -57 -16 119 589 161 567 118 hstem
          92 216 vstem
          605 -16 rmoveto
          225 163 66 23 69 hvcurveto
          40 329 -7 callsubr
          -74 -42 -132 -29 -91 hhcurveto
          -241 -91 280 265 -5 hvcurveto
          -1 27 1 29 2 30 198 -29 280 -7 110 -6 34 171 rcurveline
          -611 -19 rlineto
          274 42 140 302 305 hhcurveto
          116 55 -20 -25 36 hvcurveto
          24 -262 153 callgsubr
          66 368 -38 11 rlineto
          17 -63 -111 29 -181 hhcurveto
          -404 -348 -362 -549 163 callsubr
          4 141 -332 368 hhcurveto
          endchar
        </CharString>
        <CharString name="afii10054">
          43 callgsubr
          hstem
          195 202 385 203 vstem
          54 65 -35 callsubr
        </CharString>
        <CharString name="afii10055">
          109 callgsubr
          687 vstem
          28 hmoveto
          -102 callsubr
          endchar
        </CharString>
        <CharString name="afii10057">
          -556 1421 101 hstem
          -152 881 vstem
          204 86 -82 callgsubr
          endchar
        </CharString>
        <CharString name="afii10058">
          592 -16 110 -94 88 639 127 558 110 -100 100 hstemhm
          1608 206 hintmask 00000000
          hintmask 10110100
          77 callsubr
          hintmask 01110100
          106 callgsubr
          266 hlineto
          hintmask 10101100
          -1 85 153 -15 45 hhcurveto
          321 263 177 344 221 -157 128 -293 -90 -83 -14 -10 -47 hvcurveto
          71 567 181 25 rlineto
          hintmask 10110100
          12 100 rlineto
          -1084 hlineto
          hintmask 10101100
          78 callsubr
          1067 -130 rmoveto
          74 597 rlineto
          9 41 60 6 70 hhcurveto
          185 123 -83 -170 -241 -140 -139 -220 -98 -55 11 10 -40 hvcurveto
          endchar
        </CharString>
        <CharString name="afii10059">
          706 -16 110 -94 88 626 130 -117 127 567 101 hstemhm
          1797 206 hintmask 00000000
          hintmask 01101100
          -47 callgsubr
          255 160 callgsubr
          hintmask 10011100
          320 264 177 344 221 -157 128 -293 -92 -82 -14 -10 -46 hvcurveto
          71 568 138 23 12 101 rlineto
          144 callsubr
          rlineto
          hintmask 01101100
          -65 callsubr
          hintmask 10011100
          1205 28 rmoveto
          75 597 rlineto
          9 40 61 6 70 hhcurveto
          185 123 -83 -170 -241 -141 -139 -219 -99 -55 11 10 -40 hvcurveto
          endchar
        </CharString>
        <CharString name="afii10060">
          269 0 87 695 141 482 116 -112 112 hstemhm
          1234 152 callsubr
          hintmask 11011000
          234 hmoveto
          593 hlineto
          9 87 -186 30 88 612 rlineto
          28 57 120 25 90 hhcurveto
          255 -6 -111 -333 -41 hvcurveto
          -28 -221 -138 138 callgsubr
          475 hlineto
          11 87 -134 30 46 369 rlineto
          365 45 -149 72 -236 hhcurveto
          -111 -127 -24 -52 -103 hvcurveto
          81 567 380 -9 155 callsubr
          -1247 hlineto
          -77 -466 rlineto
          116 hlineto
          hintmask 11101000
          96 341 336 17 -179 -1297 -209 -30 rlineto
          endchar
        </CharString>
        <CharString name="afii10061">
          44 82 callgsubr
          627 101 125 99 hstemhm
          28 1388 -934 210 hintmask 00010100
          857 1647 -98 callsubr
          hintmask 11101000
          -829 -1647 rmoveto
          -39 callgsubr
          76 604 155 -56 callgsubr
          -488 34 callsubr
        </CharString>
        <CharString name="afii10062">
          50 callgsubr
          125 99 hstemhm
          106 1248 -920 210 hintmask 00010100
          809 1647 -98 callsubr
          hintmask 00000000
          -627 -1632 -57 callgsubr
        </CharString>
        <CharString name="afii10065">
          -6 callgsubr
          hstem
          82 211 vstem
          -107 callgsubr
          endchar
        </CharString>
        <CharString name="afii10066">
          -167 -16 112 887 130 349 171 hstem
          75 205 554 214 vstem
          474 -16 rmoveto
          332 242 334 381 246 -96 168 -256 -208 -155 -149 -176 -81 hvcurveto
          571 127 295 103 305 hhcurveto
          63 13 16 57 7 hvcurveto
          38 230 rlineto
          -102 hlineto
          -63 -98 rlineto
          -22 -14 -14 -12 -21 hhcurveto
          -371 -440 -411 -708 -281 122 -249 277 hvcurveto
          25 112 rmoveto
          -147 -72 156 215 hvcurveto
          209 -1 135 307 220 hhcurveto
          147 53 -128 -206 hvcurveto
          -227 1 -83 -326 -253 hhcurveto
          endchar
        </CharString>
        <CharString name="afii10067">
          -177 -19 117 485 73 374 120 hstemhm
          83 211 482 222 -213 152 callsubr
          hintmask 11110100
          83 450 rmoveto
          -293 186 -176 199 352 175 207 230 116 -72 125 -193 -3 vhcurveto
          hintmask 11111000
          198 72 70 97 136 vvcurveto
          91 -87 98 -224 vhcurveto
          hintmask 11110100
          -230 -374 -209 -491 hvcurveto
          234 199 rmoveto
          264 17 200 117 89 hhcurveto
          hintmask 11111000
          113 40 -48 -77 -136 -115 -62 -202 -34 hvcurveto
          -165 -288 rmoveto
          41 -4 73 9 46 vhcurveto
          225 34 rlineto
          2 20 18 2 17 hhcurveto
          hintmask 11110100
          158 48 -97 -113 -169 -115 -106 -155 hvcurveto
          hintmask 11111000
          -145 -76 137 150 hvcurveto
          endchar
        </CharString>
        <CharString name="afii10068">
          -441 -20 137 915 131 hstem
          40 208 316 221 vstem
          40 245 rmoveto
          -142 129 -123 175 122 152 54 81 71 vhcurveto
          -31 97 rlineto
          -52 -79 -45 -43 -121 hhcurveto
          -44 callsubr
        </CharString>
        <CharString name="afii10069">
          -120 -24 126 926 106 425 123 hstem
          105 208 557 209 vstem
          105 420 rmoveto
          -250 120 -194 239 462 153 575 423 324 -73 384 -378 -100 -149 -35 -91 -107 vhcurveto
          58 -69 rlineto
          61 91 72 11 62 hhcurveto
          196 98 -159 -303 18 hvcurveto
          23 -42 -53 14 -66 hhcurveto
          -330 -271 -336 -378 hvcurveto
          396 -318 rmoveto
          -174 -14 190 163 324 194 249 193 69 55 -13 -33 46 hvcurveto
          -532 -1 -99 -348 -269 hhcurveto
          endchar
        </CharString>
        <CharString name="afii10070">
          -41 callsubr
          hstem
          85 215 454 209 vstem
          85 430 -95 callsubr
        </CharString>
        <CharString name="afii10071">
          -41 callsubr
          223 267 147 callgsubr
          23 57 callsubr
          -260 209 hintmask 00000000
          hintmask 00010110
          861 1386 -104 callsubr
          hintmask 11101001
          -354 -956 -95 callsubr
        </CharString>
        <CharString name="afii10072">
          69 callsubr
          356 152 -113 113 -10 -20 hstemhm
          405 199 596 200 -17 callgsubr
          hintmask 1001010110000000
          -38 15 14 callgsubr
          hintmask 0011010110000000
          19 callgsubr
          hintmask 1001010110000000
          49 callsubr
          hintmask 0101010110000000
          -78 -80 -36 -24 -68 hhcurveto
          -31 callsubr
        </CharString>
        <CharString name="afii10073">
          -249 -16 114 callgsubr
          hstemhm
          703 217 -199 169 callgsubr
          hintmask 11110000
          23 71 rmoveto
          -36 70 115 -51 190 hhcurveto
          60 callgsubr
          hintmask 11101000
          -36 callgsubr
          hintmask 11110000
          28 callsubr
        </CharString>
        <CharString name="afii10074">
          -64 callgsubr
          hstemhm
          163 202 383 203 hintmask 00000000
          hintmask 10001110
          -90 callsubr
          hintmask 01010110
          -31 54 rlineto
          -97 callsubr
          hintmask 10100110
          -84 callsubr
          hintmask 10001110
          -48 24 -249 -51 -18 -89 100 -60 -51 -366 rlineto
          168 callgsubr
        </CharString>
        <CharString name="afii10075">
          -64 callgsubr
          144 100 38 callsubr
          -57 209 231 -103 callgsubr
          519 1033 -86 callgsubr
          endchar
        </CharString>
        <CharString name="afii10076">
          -169 0 92 -71 99 callgsubr
          hstemhm
          835 232 hintmask 00000000
          hintmask 01101100
          93 callgsubr
          192 hlineto
          hintmask 10110100
          80 callgsubr
          -21 callsubr
          hintmask 01101100
          -55 25 -12 callsubr
        </CharString>
        <CharString name="afii10077">
          21 callgsubr
          -97 -13 56 -37 83 hhcurveto
          111 113 99 27 16 hvcurveto
          -3 callsubr
        </CharString>
        <CharString name="afii10078">
          341 151 callgsubr
          26 91 callgsubr
          hintmask 00101001
          68 callgsubr
          hintmask 00010101
          89 callsubr
          hintmask 01001001
          -97 2 42 -35 80 hhcurveto
          113 105 100 25 15 hvcurveto
          hintmask 10001001
          -32 54 rlineto
          45 callsubr
          hintmask 00010011
          -12 -102 rlineto
          hintmask 00101001
          52 callsubr
        </CharString>
        <CharString name="afii10079">
          21 151 callgsubr
          42 53 callgsubr
          133 1069 hintmask 00000000
          hintmask 00110011
          32 callgsubr
          498 hlineto
          -56 -416 rlineto
          hintmask 01010011
          141 callsubr
          hintmask 10011001
          -31 53 rlineto
          17 callsubr
          hintmask 00110101
          172 callsubr
          hintmask 00110011
          16 callgsubr
          endchar
        </CharString>
        <CharString name="afii10080">
          -137 -20 122 938 123 hstem
          85 214 541 215 vstem
          -58 callsubr
          endchar
        </CharString>
        <CharString name="afii10081">
          -53 callsubr
        </CharString>
        <CharString name="afii10082">
          -35 callgsubr
        </CharString>
        <CharString name="afii10083">
          55 callgsubr
          hstem
          76 215 vstem
          435 -20 -93 callsubr
          endchar
        </CharString>
        <CharString name="afii10084">
          -71 callgsubr
        </CharString>
        <CharString name="afii10085">
          -99 callsubr
          endchar
        </CharString>
        <CharString name="afii10086">
          400 -518 132 -111 -21 498 121 -121 143 -102 -21 1019 144 -122 122 -28 -20 410 -20 63 callsubr
          312 498 -338 55 565 210 -17 callgsubr
          hintmask 0110001011011000
          413 -20 rmoveto
          hintmask 0110001011101000
          111 92 51 58 61 hvcurveto
          -41 -270 -31 -202 -1 vvcurveto
          -95 -11 67 -39 80 hhcurveto
          122 104 116 28 17 hvcurveto
          hintmask 1010001011101000
          -31 54 rlineto
          hintmask 1000101011011000
          -54 -58 -28 -12 -21 hhcurveto
          -17 -17 21 56 8 hvcurveto
          45 309 rlineto
          hintmask 0110001011101000
          -12 40 41 -8 39 hhcurveto
          390 220 440 310 250 -108 183 -232 -96 -79 -42 -52 -58 hvcurveto
          81 554 -52 27 rlineto
          -1 hlineto
          hintmask 0110000111011000
          -264 -42 -21 -83 124 -43 -53 -347 rlineto
          hintmask 0110001011011000
          16 -43 -48 12 -43 hhcurveto
          -396 -224 5 callgsubr
          hvcurveto
          hintmask 0101001011011000
          37 143 rmoveto
          -97 -60 109 193 244 114 372 264 55 50 -13 -41 38 hvcurveto
          -113 -741 rlineto
          -58 -55 -95 -65 -101 hhcurveto
          hintmask 0110010011011000
          435 14 rmoveto
          114 778 rlineto
          53 54 80 51 85 hhcurveto
          102 65 -109 -193 -244 -112 -372 -257 -49 -45 9 27 -37 hvcurveto
          endchar
        </CharString>
        <CharString name="afii10087">
          -40 callgsubr
        </CharString>
        <CharString name="afii10088">
          -72 142 callsubr
          hstemhm
          163 202 344 173 -139 191 -186 203 -17 callgsubr
          hintmask 1000110010000000
          92 callgsubr
          hintmask 0100110010000000
          159 callsubr
          hintmask 1000111000000000
          -49 -36 -39 -47 -57 vvcurveto
          hintmask 1000110100000000
          38 callgsubr
          hintmask 1001010010000000
          71 -52 53 48 vvcurveto
          54 63 19 46 30 vhcurveto
          63 36 47 53 12 18 -31 54 rcurveline
          -97 callsubr
          -84 callgsubr
          hintmask 1010010010000000
          83 callsubr
          hintmask 1000110010000000
          -48 24 -249 -51 -18 -89 100 -60 -51 -366 rlineto
          168 callgsubr
        </CharString>
        <CharString name="afii10089">
          -37 callgsubr
          endchar
        </CharString>
        <CharString name="afii10090">
          538 -20 138 -136 133 1024 136 callsubr
          384 203 hintmask 00000000
          hintmask 10001111
          45 callgsubr
          -94 -20 39 -61 -54 callgsubr
          hintmask 01010111
          -31 54 rlineto
          -54 -59 -26 -12 -21 hhcurveto
          -22 -7 24 52 7 hvcurveto
          125 964 rlineto
          -199 hlineto
          -116 -876 rlineto
          hintmask 10010111
          12 callsubr
          hintmask 10100111
          83 callsubr
          hintmask 10001111
          90 callgsubr
        </CharString>
        <CharString name="afii10091">
          535 -20 138 -100 -21 1142 136 callsubr
          344 173 -139 191 -185 203 -17 callgsubr
          hintmask 1000111001000000
          45 callgsubr
          hintmask 0100111001000000
          -14 -67 15 -50 42 -23 rrcurveto
          hintmask 1000111100000000
          -49 -35 -39 -48 -57 vvcurveto
          hintmask 1000111010000000
          38 callgsubr
          hintmask 1001011001000000
          71 -52 53 48 vvcurveto
          52 57 19 45 27 vhcurveto
          67 37 51 56 12 19 -31 54 rcurveline
          -54 -59 -26 -12 -21 hhcurveto
          -22 -7 24 52 7 hvcurveto
          125 964 rlineto
          -199 hlineto
          -116 -876 rlineto
          12 callsubr
          hintmask 1010011001000000
          83 callsubr
          hintmask 1000111001000000
          90 callgsubr
        </CharString>
        <CharString name="afii10092">
          -39 157 callsubr
          239 139 -139 174 hstemhm
          100 64 181 213 418 199 hintmask 00000000
          hintmask 11011110
          345 352 rmoveto
          -226 134 -149 201 290 205 241 223 190 -81 119 -160 -177 -103 -75 -131 -82 vhcurveto
          hintmask 11101110
          41 220 123 175 171 160 19 19 -62 57 -17 -12 rrcurveto
          -21 -30 -56 -14 -28 hhcurveto
          hintmask 11011110
          -120 -185 35 -149 hhcurveto
          -49 -34 -9 -11 -17 hvcurveto
          -58 -38 -21 -196 -93 vvcurveto
          64 hlineto
          5 31 12 30 18 25 34 47 36 42 87 -1 270 -2 rcurveline
          -169 -159 -112 -196 -281 vvcurveto
          213 29 rmoveto
          23 vlineto
          126 59 139 80 84 hhcurveto
          131 5 -99 -95 -175 -110 -151 -166 -113 -29 156 135 hvcurveto
          endchar
        </CharString>
        <CharString name="afii10093">
          64 callsubr
          417 209 -17 callgsubr
          hintmask 1001100110000000
          427 -23 rmoveto
          30 callsubr
          100 560 rlineto
          hintmask 0011001110000000
          86 callgsubr
          hintmask 1001100110000000
          115 callgsubr
          619 161 rmoveto
          hintmask 0011001110000000
          125 callsubr
          hintmask 0101010110000000
          84 callgsubr
          hintmask 1001001110000000
          -728 -1065 -6 callsubr
        </CharString>
        <CharString name="afii10094">
          -263 157 callsubr
          388 -20 45 -20 hstemhm
          126 193 417 209 hintmask 00000000
          hintmask 11011100
          442 -23 rmoveto
          30 callsubr
          hintmask 11101100
          100 560 rlineto
          hintmask 11011100
          86 callgsubr
          115 callgsubr
          19 113 -6 callsubr
        </CharString>
        <CharString name="afii10095">
          143 callgsubr
          hstem
          761 210 vstem
          24 91 -29 callgsubr
        </CharString>
        <CharString name="afii10096">
          407 -20 122 -81 -21 527 120 393 123 -25 -20 hstemhm
          629 152 callgsubr
          hintmask 00000000
          hintmask 01110110
          133 hmoveto
          200 hlineto
          70 527 rlineto
          229 hlineto
          -3 -29 -1 -30 1 -29 rrcurveto
          hintmask 10110110
          -291 6 138 -168 255 154 callsubr
          291 -5 -140 169 -255 hhcurveto
          -273 -207 -235 -281 -67 hvcurveto
          -233 hlineto
          hintmask 10101110
          172 callsubr
          hintmask 10110110
          16 callgsubr
          580 -522 rmoveto
          257 -6 100 342 226 hhcurveto
          144 74 -126 -212 3 hvcurveto
          -257 5 -99 -343 -227 hhcurveto
          -144 -73 126 213 -3 hvcurveto
          endchar
        </CharString>
        <CharString name="afii10097">
          -80 -18 133 -115 100 -97 -21 494 110 450 113 -13 -20 hstemhm
          163 203 hintmask 00000000
          hintmask 01011010
          -31 hmoveto
          251 hlineto
          101 87 350 127 122 hvcurveto
          263 -1 rlineto
          0 -42 -363 -11 vvcurveto
          hintmask 00111010
          -74 32 -46 81 122 110 116 29 17 vhcurveto
          hintmask 10010110
          -31 54 rlineto
          -53 -58 -26 -13 -21 hhcurveto
          -17 -8 14 29 9 109 969 0 hvcurveto
          -90 hlineto
          -67 -94 13 -134 hhcurveto
          hintmask 01011010
          -305 -208 -120 -258 -129 63 -103 142 -42 hvcurveto
          -99 -112 -86 -228 -124 -30 -78 -27 rcurveline
          653 487 rmoveto
          -193 -75 83 125 199 135 42 154 118 60 -3 -3 28 hvcurveto
          -54 -439 rlineto
          -5 -28 -102 1 -43 hhcurveto
          endchar
        </CharString>
        <CharString name="afii10098">
          -490 21 -21 1020 116 -102 102 hstemhm
          79 823 120 callgsubr
          86 hmoveto
          185 hlineto
          127 1020 rlineto
          441 hlineto
          63 442 rlineto
          -115 hlineto
          -101 -326 rlineto
          -594 hlineto
          hintmask 10110000
          -13 -102 131 -29 rlineto
          endchar
        </CharString>
        <CharString name="afii10099">
          -43 -499 110 -89 -21 520 -21 1003 160 128 108 126 -20 hstemhm
          484 17 368 206 hintmask 00000000
          hintmask 01111111
          117 hmoveto
          200 hlineto
          100 755 rlineto
          141 99 138 107 103 hhcurveto
          81 31 -37 -100 -20 -89 -795 -1 -4 hvcurveto
          hintmask 10111111
          -23 -195 -47 -181 -118 -40 rrcurveto
          -12 -34 -36 -8 -34 hhcurveto
          -5 -101 rlineto
          -8 8 53 -1 31 hhcurveto
          202 144 178 342 45 hvcurveto
          1 5 109 835 29 vvcurveto
          174 -76 99 -151 -158 -148 -112 -139 -104 vhcurveto
          50 379 rlineto
          293 hlineto
          14 108 rlineto
          -293 hlineto
          30 224 31 callsubr
          -11 -83 rlineto
          -166 hlineto
          -14 -108 rlineto
          166 hlineto
          endchar
        </CharString>
        <CharString name="afii10100">
          -441 -20 137 915 131 87 493 hstemhm
          40 208 175 461 -320 221 hintmask 00101000
          488 1250 -88 callsubr
          hintmask 11010100
          -383 -1067 rmoveto
          -142 129 -123 175 122 152 54 81 71 vhcurveto
          -31 97 rlineto
          -52 -79 -45 -43 -121 hhcurveto
          -44 callsubr
        </CharString>
        <CharString name="afii10101">
          -268 -23 117 409 170 388 112 hstem
          76 211 vstem
          76 452 rmoveto
          -295 142 -180 307 172 128 52 61 81 vhcurveto
          24 200 rlineto
          -114 hlineto
          -49 -158 rlineto
          -21 -60 -76 -17 -82 hhcurveto
          -144 -118 115 253 24 0 26 2 26 hvcurveto
          188 -22 227 -7 97 -6 34 170 rcurveline
          -527 hlineto
          202 41 109 186 221 hhcurveto
          89 49 -18 -34 36 hvcurveto
          33 -149 rlineto
          101 hlineto
          33 262 rlineto
          30 -55 -126 21 -126 hhcurveto
          -370 -267 -333 -388 hvcurveto
          endchar
        </CharString>
        <CharString name="afii10102">
          -413 87 callsubr
          hstem
          157 196 189 193 vstem
          40 39 -99 callgsubr
          endchar
        </CharString>
        <CharString name="afii10103">
          -640 -91 callgsubr
        </CharString>
        <CharString name="afii10104">
          103 callgsubr
          114 270 -223 212 163 269 hintmask 00000000
          hintmask 00001101
          652 1386 -104 callsubr
          hintmask 00000000
          -69 -1273 -78 callsubr
          hintmask 01010010
          -90 callgsubr
          hintmask 10100010
          -83 callgsubr
          endchar
        </CharString>
        <CharString name="afii10105">
          71 callsubr
          243 267 hstemhm
          -211 721 -195 270 hintmask 00000000
          hintmask 10101000
          185 65 -80 callgsubr
          hintmask 11001000
          63 callgsubr
          hintmask 10101000
          -7 callgsubr
          hintmask 00010100
          149 406 -95 callgsubr
          endchar
        </CharString>
        <CharString name="afii10106">
          322 -23 113 -85 -21 626 140 257 129 -102 102 hstemhm
          723 199 424 199 hintmask 00000000
          hintmask 01110110
          54 callgsubr
          81 380 33 277 13 110 rcurveline
          316 hlineto
          -65 -593 rlineto
          hintmask 10110110
          -267 -29 152 -170 203 hhcurveto
          289 105 callgsubr
          -169 -194 159 callgsubr
          -4 -4 69 582 rlineto
          -817 hlineto
          hintmask 01101110
          -13 -102 179 -29 -35 -278 -66 -333 -73 -135 rlinecurve
          -40 -21 -21 -22 -22 hhcurveto
          -22 -95 26 8 -10 hvcurveto
          -50 -223 rlineto
          hintmask 01110110
          -9 4 60 -15 23 hhcurveto
          hintmask 10110110
          891 409 rmoveto
          133 54 144 84 86 hhcurveto
          132 4 -99 -95 -150 -109 -176 -166 -139 -22 151 152 16 hvcurveto
          endchar
        </CharString>
        <CharString name="afii10107">
          507 -23 113 -69 163 callgsubr
          -37 140 386 62 callsubr
          909 190 424 199 -17 callgsubr
          hintmask 0110001110000000
          32 callgsubr
          522 hlineto
          -12 -114 rlineto
          hintmask 1001100110000000
          -267 -31 144 -170 203 hhcurveto
          289 105 callgsubr
          -170 -193 159 callgsubr
          -4 -4 68 582 rlineto
          -198 hlineto
          hintmask 0110010110000000
          -54 -489 rlineto
          -519 hlineto
          172 callsubr
          hintmask 1001001110000000
          16 callgsubr
          840 76 callsubr
          -22 151 152 16 hvcurveto
          endchar
        </CharString>
        <CharString name="afii10108">
          35 callgsubr
          106 108 148 -34 callsubr
          47 357 rlineto
          231 hlineto
          1 108 rlineto
          -218 hlineto
          33 246 31 callsubr
          -14 -105 rlineto
          -152 hlineto
          -1 -108 rlineto
          139 hlineto
          endchar
        </CharString>
        <CharString name="afii10109">
          -169 0 92 -71 99 callgsubr
          107 493 hstemhm
          581 461 -207 232 hintmask 00000110
          646 1250 -88 callsubr
          hintmask 00000000
          -448 -1312 rmoveto
          108 callgsubr
          192 hlineto
          hintmask 01101001
          80 callgsubr
          -21 callsubr
          hintmask 10110001
          -55 25 -12 callsubr
        </CharString>
        <CharString name="afii10110">
          -39 callsubr
          144 100 hstemhm
          241 209 385 -106 callsubr
          694 1605 -86 callgsubr
          endchar
        </CharString>
        <CharString name="afii10145">
          224 0 117 1304 101 hstem
          584 123 vstem
          28 hmoveto
          581 hlineto
          -25 -341 rlineto
          129 hlineto
          81 341 rlineto
          560 hlineto
          9 87 -151 31 160 97 callsubr
          -492 hlineto
          -10 -101 149 -23 -162 -1281 rlineto
          -618 hlineto
          162 1281 151 -56 callgsubr
          -488 hlineto
          -13 -101 134 6 callgsubr
          endchar
        </CharString>
        <CharString name="afii10146">
          98 -16 110 -94 100 554 117 373 111 -101 101 181 86 hstemhm
          1116 152 callsubr
          hintmask 01110110
          193 hmoveto
          260 160 callgsubr
          hintmask 10110110
          343 234 150 299 201 -142 137 -295 -81 -102 -9 -9 -55 hvcurveto
          57 399 399 -16 -12 -152 rlineto
          108 hlineto
          72 271 rlineto
          -553 hlineto
          22 148 172 33 11 86 rlineto
          -513 hlineto
          -10 -86 133 -28 rlineto
          hintmask 01101110
          -22 -153 rlineto
          -456 hlineto
          -57 -271 rlineto
          116 hlineto
          64 152 302 18 rlineto
          17 hlineto
          -148 -1030 -148 -24 rlineto
          hintmask 10110110
          354 12 rmoveto
          76 527 rlineto
          8 48 89 7 61 hhcurveto
          180 103 -113 -136 -178 -128 -133 -239 -113 -37 8 10 -40 hvcurveto
          endchar
        </CharString>
        <CharString name="afii10147">
          101 -20 120 545 138 -14 138 510 125 75 callsubr
          771 215 hintmask 00000000
          hintmask 11011100
          33 callgsubr
          hintmask 10111100
          -288 811 rmoveto
          372 32 181 254 233 hhcurveto
          206 106 -207 -318 8 hvcurveto
          hintmask 11011100
          -37 -40 -69 -72 -86 -97 -87 124 -151 hhcurveto
          hintmask 10111100
          -104 -77 -55 -61 -55 hvcurveto
          316 -691 rmoveto
          -210 -105 225 321 -6 hvcurveto
          20 vlineto
          39 42 75 64 83 92 94 -124 150 hhcurveto
          hintmask 11011100
          107 74 53 61 52 hvcurveto
          hintmask 10111100
          -388 -25 -185 -271 -238 hhcurveto
          endchar
        </CharString>
        <CharString name="afii10148">
          10 6 -21 1391 147 -102 101 hstemhm
          110 1325 131 callgsubr
          536 -15 rmoveto
          156 hlineto
          428 1147 rlineto
          hintmask 11010000
          70 197 129 48 73 -1 rrcurveto
          10 9 -1 -2 7 hvcurveto
          17 138 rlineto
          5 -9 -43 7 -49 hhcurveto
          -93 -136 -55 -196 -67 hvcurveto
          -297 -847 -72 -250 -38 251 rlineto
          hintmask 10110000
          -198 972 183 23 12 101 rlineto
          -506 hlineto
          -12 -101 122 -23 rlineto
          endchar
        </CharString>
        <CharString name="afii10193">
          -31 -59 callsubr
          hstemhm
          163 202 101 169 -147 181 79 203 -17 callgsubr
          hintmask 1000110110000000
          -90 callsubr
          hintmask 0101010110000000
          -31 54 rlineto
          -97 callsubr
          hintmask 1010010110000000
          -84 callsubr
          hintmask 1000110110000000
          -48 24 -249 -51 -18 -89 100 -60 -51 -366 rlineto
          -16 -119 -19 -136 -88 vvcurveto
          hintmask 1000111010000000
          303 -447 rmoveto
          hintmask 1000110110000000
          -75 22 -22 -52 vvcurveto
          -61 -60 -8 -50 -20 vhcurveto
          55 -64 rlineto
          118 29 118 40 106 vvcurveto
          hintmask 1000111010000000
          70 -34 38 47 vvcurveto
          54 14 17 29 17 vhcurveto
          -38 48 rlineto
          -68 -9 -106 -59 -96 vvcurveto
          endchar
        </CharString>
        <CharString name="afii10194">
          420 -23 113 -69 -21 610 140 253 160 -24 -20 hstemhm
          830 191 -135 206 354 199 hintmask 00000000
          hintmask 01110101
          133 hmoveto
          -28 callgsubr
          138 105 101 hhcurveto
          hintmask 01110011
          70 42 -11 -143 -125 -33 -192 -17 -118 hvcurveto
          hintmask 10110101
          -266 -40 152 -171 203 hhcurveto
          290 105 callgsubr
          -170 hvcurveto
          hintmask 01110011
          -176 -144 -124 -54 -33 hvcurveto
          18 108 19 119 62 vvcurveto
          226 -89 76 -138 -150 -150 -103 -132 -107 vhcurveto
          hintmask 01101101
          20 211 rlineto
          hintmask 10110101
          -48 24 -248 -52 -18 -89 99 -59 rlineto
          763 76 callsubr
          -26 152 151 20 hvcurveto
          endchar
        </CharString>
        <CharString name="afii10195">
          -137 -20 122 318 164 456 11 callsubr
          232 217 rmoveto
          199 38 98 185 166 hhcurveto
          144 74 -126 -212 3 hvcurveto
          -19 vlineto
          -46 -33 -15 -53 -68 -91 -32 140 -132 hhcurveto
          -59 -52 -28 -40 -41 hvcurveto
          202 -554 rmoveto
          -144 -73 126 213 -3 hvcurveto
          -1 12 1 12 12 vvcurveto
          35 39 42 45 42 -1 rrcurveto
          -2 109 -2 -138 161 hhcurveto
          52 44 17 29 35 hvcurveto
          -192 -41 -96 -172 -161 hhcurveto
          endchar
        </CharString>
        <CharString name="afii10196">
          -238 5 -21 1008 170 -143 144 -15 -20 34 -20 21 -20 hstemhm
          35 1118 hintmask 00000000
          hintmask 10000110
          322 -16 rmoveto
          153 hlineto
          393 764 rlineto
          hintmask 11000010
          189 97 84 55 68 hhcurveto
          6 6 0 -1 6 hvcurveto
          hintmask 10010010
          18 157 rlineto
          hintmask 10001010
          5 -10 -24 9 -48 hhcurveto
          -87 -117 -88 -189 -88 hvcurveto
          -249 -526 -80 -167 -12 167 -69 667 rlineto
          hintmask 10000110
          88 -9 -25 49 -102 hhcurveto
          -102 -82 -85 -21 -14 hvcurveto
          hintmask 10100010
          29 -61 rlineto
          15 22 19 8 21 hhcurveto
          18 16 -16 -40 6 hvcurveto
          endchar
        </CharString>
        <CharString name="afii10846">
          85 callgsubr
          hstem
          50 210 vstem
          50 230 -65 callgsubr
        </CharString>
        <CharString name="afii61248">
          629 21 -21 64 103 530 103 -54 125 499 108 52 -20 hstemhm
          201 175 659 174 336 183 -17 callgsubr
          hintmask 1110111110000000
          69 callgsubr
          hintmask 1101111110000000
          -866 -784 rmoveto
          106 99 40 54 66 hvcurveto
          -36 91 rlineto
          -31 -49 -43 -29 -97 hhcurveto
          -87 -58 48 149 225 97 77 117 38 31 -10 -14 11 hvcurveto
          17 -135 rlineto
          106 hlineto
          38 225 rlineto
          17 -37 -58 25 -90 hhcurveto
          -261 -184 -188 -250 -176 104 -118 170 hvcurveto
          hintmask 1110111110000000
          560 -372 2 callsubr
        </CharString>
        <CharString name="afii61352">
          1216 0 149 420 104 728 132 -109 98 -98 109 -105 105 hstemhm
          1578 200 463 201 hintmask 00000000
          hintmask 11001011
          1581 1055 rmoveto
          -296 -28 146 -190 258 hhcurveto
          196 253 140 342 33 hvcurveto
          296 29 -146 186 -258 hhcurveto
          -198 -253 -138 -340 -32 hvcurveto
          -1555 -1055 rmoveto
          493 hlineto
          6 86 -177 29 124 1179 127 -294 396 -1000 rlineto
          240 hlineto
          154 1401 160 23 rlineto
          hintmask 11010011
          8 98 rlineto
          -479 hlineto
          hintmask 11001011
          -8 -98 rlineto
          hintmask 11100011
          158 -23 -129 -1192 -100 286 rlineto
          hintmask 11010011
          -408 1027 rlineto
          -412 hlineto
          hintmask 11001011
          -8 -98 rlineto
          hintmask 11100011
          156 -23 -149 -1287 -146 -28 rlineto
          1749 978 rmoveto
          hintmask 11000111
          21 254 95 108 147 2 142 2 72 -157 -20 -233 -21 -258 -96 -107 -145 -2 rrcurveto
          hintmask 11100011
          -142 -2 -73 161 20 232 rrcurveto
          -262 -1064 rmoveto
          775 hlineto
          12 149 rlineto
          -775 hlineto
          endchar
        </CharString>
        <CharString name="agrave">
          -6 callgsubr
          88 492 63 callsubr
          42 443 hintmask 11010000
          -107 callgsubr
          hintmask 00101000
          276 1128 -63 callgsubr
        </CharString>
        <CharString name="amacron">
          -6 callgsubr
          261 152 63 callsubr
          156 531 hintmask 11010000
          -107 callgsubr
          hintmask 00101000
          14 1301 -52 callsubr
          endchar
        </CharString>
        <CharString name="ampersand">
          263 -18 111 558 155 -125 149 615 104 hstemhm
          50 210 53 186 401 201 -9 184 hintmask 00000000
          hintmask 11011110
          50 367 rmoveto
          -272 259 -113 259 142 129 27 52 109 vhcurveto
          -54 70 86 -27 83 hhcurveto
          43 57 0 20 81 hvcurveto
          11 86 -54 1 -70 14 -54 20 rlinecurve
          -30 14 -29 19 -29 22 rrcurveto
          hintmask 11011101
          102 101 61 138 170 vvcurveto
          26 -2 23 -3 20 vhcurveto
          -2 18 18 -1 19 hhcurveto
          159 63 127 190 hvcurveto
          -78 hlineto
          -123 -19 -66 -39 -102 hhcurveto
          hintmask 10111101
          -92 -80 24 -75 hhcurveto
          -88 -49 -31 -18 -18 hvcurveto
          -138 vlineto
          15 29 58 23 62 14 13 -1 13 hhcurveto
          12 -37 10 -46 -56 vvcurveto
          -120 -14 -100 -51 -75 vhcurveto
          -159 141 -135 183 -119 211 rrcurveto
          hintmask 11011110
          230 130 257 118 240 vvcurveto
          137 -81 143 -251 -255 -201 -157 -243 -110 41 -149 48 -111 vhcurveto
          -186 -97 -166 -110 -205 vvcurveto
          520 498 rmoveto
          -34 75 -37 112 124 vvcurveto
          151 90 118 155 130 26 -107 -90 -187 -153 -103 -177 -93 vhcurveto
          -310 -493 rmoveto
          132 81 95 112 81 vhcurveto
          115 -193 87 -158 214 -198 rrcurveto
          -25 -71 -91 -13 -119 hhcurveto
          -172 -156 85 194 hvcurveto
          endchar
        </CharString>
        <CharString name="aogonek">
          -107 169 callsubr
          267 143 -118 -21 1056 123 63 callsubr
          302 197 hintmask 00000000
          hintmask 01011000
          394 -20 rmoveto
          131 121 102 99 77 hvcurveto
          -7 -66 rlineto
          hintmask 10111100
          -4 -80 35 -40 57 -11 -56 -33 -58 -36 -54 -72 -25 -32 -14 -50 -2 -42 101 callgsubr
          -39 -16 -36 hhcurveto
          -24 -34 21 64 4 hvcurveto
          2 72 88 74 109 86 43 29 29 33 7 13 -31 54 rcurveline
          121 callgsubr
          -18 hhcurveto
          -17 -20 22 54 7 hvcurveto
          131 973 -121 -34 rlineto
          18 -56 -77 17 -66 hhcurveto
          -413 -237 -441 -310 hvcurveto
          hintmask 01011000
          -250 87 -182 225 vhcurveto
          41 143 rmoveto
          -100 -42 118 194 121 callsubr
          361 284 49 44 -8 -23 36 hvcurveto
          -86 -660 rlineto
          -94 -66 -127 -132 -116 hhcurveto
          endchar
        </CharString>
        <CharString name="approxequal">
          -256 284 169 2 169 106 169 2 169 hstemhm
          43 929 -879 929 hintmask 00000000
          hintmask 01001000
          115 339 79 callsubr
          hintmask 10001000
          26 callsubr
          hintmask 01001000
          128 callgsubr
          hintmask 00000000
          122 371 79 callsubr
          hintmask 00010100
          26 callsubr
          hintmask 00100100
          128 callgsubr
          endchar
        </CharString>
        <CharString name="aring">
          -6 callgsubr
          90 88 356 90 63 callsubr
          163 144 340 142 hintmask 11001000
          -107 callgsubr
          hintmask 00110110
          302 1130 -26 callgsubr
          endchar
        </CharString>
        <CharString name="arrowdown">
          122 callgsubr
          545 rmoveto
          13 -111 -409 409 -113 -110 589 -590 590 590 -113 110 -409 -410 13 112 rlineto
          902 vlineto
          -161 -1 rlineto
          endchar
        </CharString>
        <CharString name="arrowleft">
          139 callgsubr
          703 177 rmoveto
          110 113 -410 408 112 -12 rlineto
          900 hlineto
          2 161 rlineto
          -902 hlineto
          -112 -13 410 409 -110 113 -590 -590 rlineto
          endchar
        </CharString>
        <CharString name="arrowright">
          139 callgsubr
          1417 766 rmoveto
          -590 590 -110 -113 410 -409 -112 13 rlineto
          -902 hlineto
          2 -161 rlineto
          900 hlineto
          112 12 -410 -408 110 -113 rlineto
          endchar
        </CharString>
        <CharString name="arrowup">
          122 callgsubr
          144 rmoveto
          161 -1 rlineto
          902 vlineto
          -13 112 409 -410 113 110 -590 590 -589 -590 113 -110 409 409 -13 -111 rlineto
          endchar
        </CharString>
        <CharString name="asciicircum">
          81 1531 -20 hstem
          185 993 vstem
          185 413 rmoveto
          159 hlineto
          336 905 337 -905 rlineto
          161 hlineto
          -397 1118 rlineto
          -204 hlineto
          endchar
        </CharString>
        <CharString name="asciitilde">
          -145 719 169 2 169 hstemhm
          150 929 hintmask 00000000
          hintmask 01100000
          222 774 79 callsubr
          hintmask 10100000
          26 callsubr
          hintmask 01100000
          128 callgsubr
          endchar
        </CharString>
        <CharString name="asterisk">
          84 1149 -20 21 -20 544 -21 hstemhm
          276 1002 hintmask 00000000
          hintmask 01110000
          353 814 rmoveto
          291 204 93 77 -33 -114 -77 -334 194 -1 -7 335 -11 114 80 -77 246 -203 116 167 rlineto
          hintmask 10110000
          -298 131 -104 36 112 38 323 131 -77 168 -291 -204 -94 -75 33 112 77 334 -194 1 7 -335 11 -112 -79 75 -245 203 -116 -167 rlineto
          hintmask 01110000
          298 -131 103 -37 -111 -37 -324 -131 rlineto
          endchar
        </CharString>
        <CharString name="at">
          687 -428 138 297 165 -152 145 802 126 321 132 hstemhm
          117 155 258 181 455 177 372 155 -17 callgsubr
          hintmask 1101111110000000
          117 334 rmoveto
          -518 291 -244 468 171 153 46 70 93 vhcurveto
          -32 86 rlineto
          -33 -68 -174 -31 -117 hhcurveto
          -384 -246 191 507 503 299 503 540 304 300 -138 -438 hvcurveto
          hintmask 1011111110000000
          -322 -182 -351 -168 -10 -5 20 19 -2 vhcurveto
          -5 36 -3 58 10 103 19 201 51 314 39 153 -167 -30 rcurveline
          39 -56 -108 15 -55 hhcurveto
          -371 -172 -367 -292 hvcurveto
          hintmask 1101111110000000
          -297 144 -130 136 148 147 208 213 90 vhcurveto
          -21 -91 -8 -66 -47 vvcurveto
          hintmask 1011111110000000
          -119 1 -85 91 268 344 330 559 400 -267 237 -404 vhcurveto
          hintmask 1101111110000000
          -588 -494 -487 -725 hvcurveto
          594 113 rmoveto
          231 70 289 276 55 94 -28 -60 35 vhcurveto
          -238 -30 -229 -469 -136 hhcurveto
          -100 -35 121 154 hvcurveto
          endchar
        </CharString>
        <CharString name="atilde">
          -6 callgsubr
          184 54 callsubr
          82 211 87 718 hintmask 11000100
          -107 callgsubr
          hintmask 00000000
          -7 1274 10 callsubr
        </CharString>
        <CharString name="b">
          -93 -20 122 917 144 364 -20 hstem
          891 210 vstem
          123 -20 rmoveto
          100 44 rlineto
          -21 58 99 -23 82 -48 callsubr
          endchar
        </CharString>
        <CharString name="backslash">
          -428 -362 1959 hstem
          122 752 vstem
          698 -362 rmoveto
          176 hlineto
          -577 1959 rlineto
          -175 hlineto
          endchar
        </CharString>
        <CharString name="bar">
          123 callsubr
          -186 rmoveto
          175 1966 -175 hlineto
          endchar
        </CharString>
        <CharString name="braceleft">
          -262 -191 136 1656 135 hstem
          279 434 vstem
          279 -48 rmoveto
          -110 -1 47 -33 125 hhcurveto
          110 74 21 26 91 hvcurveto
          0 9 74 3 15 vhcurveto
          -275 hlineto
          95 630 6 41 -17 37 -30 31 rlinecurve
          -29 30 -54 31 -59 31 rrcurveto
          0 116 53 29 17 vhcurveto
          53 33 37 37 8 54 96 631 rcurveline
          276 hlineto
          1 19 12 69 0 vvcurveto
          0 -171 47 -89 -157 -50 -54 -198 -31 vhcurveto
          -77 -518 -4 -23 -25 -21 -36 -19 rlinecurve
          -52 -27 -75 -22 -65 -16 -18 -124 rcurveline
          59 -14 63 -25 43 -29 rrcurveto
          32 -21 20 -24 -22 vvcurveto
          0 -89 -598 -1 -29 vhcurveto
          endchar
        </CharString>
        <CharString name="braceright">
          -262 -190 135 1656 136 hstem
          344 434 vstem
          778 1594 rmoveto
          110 1 -47 33 -125 hhcurveto
          -110 -74 -21 -26 -91 hvcurveto
          0 -9 -74 -3 -15 vhcurveto
          275 hlineto
          -95 -630 -6 -41 17 -37 30 -31 rlinecurve
          29 -30 54 -31 59 -31 rrcurveto
          0 -116 -53 -29 -17 vhcurveto
          -53 -33 -37 -37 -8 -54 -96 -631 rcurveline
          -276 hlineto
          -1 -19 -12 -69 0 vvcurveto
          0 171 -47 89 157 50 54 198 31 vhcurveto
          77 518 4 23 25 21 36 19 rlinecurve
          52 27 75 22 65 16 18 124 rcurveline
          -59 14 -63 25 -43 29 rrcurveto
          -32 21 -20 24 22 vvcurveto
          0 89 598 1 29 vhcurveto
          endchar
        </CharString>
        <CharString name="bracketleft">
          -427 -192 136 1657 135 hstem
          177 407 vstem
          177 -49 rmoveto
          -110 49 -33 126 109 73 21 26 91 vhcurveto
          11 88 rlineto
          -84 -107 2 -84 hhcurveto
          223 1656 rlineto
          275 hlineto
          13 88 rlineto
          0 -172 47 -88 -158 -50 -60 -192 -25 vhcurveto
          -58 -436 -120 -634 -20 -353 rrcurveto
          -3 -40 -1 -36 -34 vvcurveto
          endchar
        </CharString>
        <CharString name="bracketright">
          -427 -180 135 1657 136 hstem
          320 407 vstem
          727 1605 rmoveto
          110 -49 33 -126 -109 -73 -21 -26 -91 vhcurveto
          -11 -88 rlineto
          84 107 -2 84 hhcurveto
          -223 -1656 rlineto
          -275 hlineto
          -13 -88 rlineto
          0 172 -47 88 158 50 60 192 25 vhcurveto
          58 436 120 634 20 353 rrcurveto
          3 40 1 36 34 vvcurveto
          endchar
        </CharString>
        <CharString name="breve">
          -565 1300 150 hstem
          59 113 vstem
          349 1300 -91 callsubr
        </CharString>
        <CharString name="breve.cap">
          -567 1628 150 hstem
          57 114 vstem
          348 1628 25 callsubr
        </CharString>
        <CharString name="breve.r">
          -262 1287 100 hstem
          299 209 vstem
          673 1287 -86 callgsubr
          endchar
        </CharString>
        <CharString name="breve.rcap">
          -272 1647 99 hstem
          321 210 vstem
          696 1647 -98 callsubr
          endchar
        </CharString>
        <CharString name="brokenbar">
          123 callsubr
          887 rmoveto
          175 893 -175 hlineto
          -1966 vmoveto
          175 893 -175 hlineto
          endchar
        </CharString>
        <CharString name="bullet">
          -424 514 435 hstem
          231 430 vstem
          409 514 rmoveto
          145 107 112 140 99 -76 84 -102 -143 -109 -108 -140 -98 77 -89 101 hvcurveto
          endchar
        </CharString>
        <CharString name="c">
          55 callgsubr
          hstem
          76 215 vstem
          435 -20 -93 callsubr
          endchar
        </CharString>
        <CharString name="cacute">
          55 callgsubr
          87 493 hstemhm
          76 215 245 461 hintmask 00101000
          601 1250 -88 callsubr
          hintmask 11010000
          -101 -1332 -93 callsubr
          endchar
        </CharString>
        <CharString name="caron">
          -488 1264 387 hstem
          69 697 vstem
          292 1264 36 callsubr
        </CharString>
        <CharString name="caron.cap">
          -490 1623 378 hstem
          80 695 vstem
          302 1623 -27 callsubr
        </CharString>
        <CharString name="caronvertical">
          -967 1045 635 hstem
          248 180 vstem
          266 1045 -50 callsubr
        </CharString>
        <CharString name="ccaron">
          55 callgsubr
          101 387 hstemhm
          76 215 37 697 hintmask 00101000
          551 1264 -62 callsubr
          hintmask 11010000
          107 -1613 -93 callsubr
          endchar
        </CharString>
        <CharString name="ccedilla">
          -400 172 callgsubr
          302 -21 29 -21 1027 147 hstemhm
          76 215 124 124 hintmask 00000000
          hintmask 10111100
          141 -286 rmoveto
          -16 -151 rlineto
          -16 22 56 -12 53 hhcurveto
          159 124 113 237 39 -4 36 -8 29 hvcurveto
          140 28 94 88 41 48 -40 82 rcurveline
          51 callsubr
          -123 -80 102 237 hvcurveto
          358 -1 134 198 197 hhcurveto
          63 66 -37 -46 57 hvcurveto
          7 -5 9 -6 7 -6 59 199 rcurveline
          29 -57 -92 19 -72 hhcurveto
          -388 -204 -424 -308 hvcurveto
          hintmask 11011100
          -275 124 -165 214 -10 vhcurveto
          -10 1 -10 -12 vvcurveto
          -151 -1 -69 -98 -113 hhcurveto
          hintmask 10111100
          -31 -43 5 9 -17 hvcurveto
          endchar
        </CharString>
        <CharString name="ccircumflex">
          55 callgsubr
          65 423 hstemhm
          76 215 -10 697 hintmask 00101000
          340 1229 -76 callgsubr
          hintmask 11010000
          154 -1306 -93 callsubr
          endchar
        </CharString>
        <CharString name="cdotaccent">
          55 callgsubr
          223 267 hstemhm
          76 215 248 270 hintmask 11010000
          435 -20 -93 callsubr
          hintmask 00101000
          221 1406 -95 callgsubr
          endchar
        </CharString>
        <CharString name="cedilla">
          -803 172 callgsubr
          hstem
          292 124 vstem
          283 30 rmoveto
          5 -20 4 -25 -36 -72 callsubr
          61 -10 56 -20 28 hvcurveto
          -54 4 rlineto
          endchar
        </CharString>
        <CharString name="cent">
          -226 11 -21 1026 146 0 -20 hstemhm
          134 215 131 callgsubr
          403 -10 rmoveto
          -38 -205 rlineto
          150 hlineto
          37 199 158 20 106 97 44 52 rlinecurve
          -40 82 rlineto
          51 callsubr
          -123 -80 102 237 hvcurveto
          hintmask 11010000
          358 -1 134 198 197 hhcurveto
          63 66 -37 -46 57 hvcurveto
          7 -5 9 -6 7 -6 59 199 rcurveline
          -49 24 -73 18 -65 5 49 196 rcurveline
          -150 hlineto
          -52 -209 rlineto
          -311 -76 -162 -367 -275 vvcurveto
          hintmask 10110000
          -244 98 -158 171 -39 vhcurveto
          endchar
        </CharString>
        <CharString name="circumflex">
          -487 1228 423 hstem
          50 697 vstem
          109 1229 23 callgsubr
        </CharString>
        <CharString name="circumflex.cap">
          -488 1623 378 hstem
          49 697 vstem
          112 1624 -87 callgsubr
        </CharString>
        <CharString name="colon">
          -755 -1 -21 830 -21 hstemhm
          66 282 -189 282 hintmask 01010000
          160 914 -54 callsubr
          hintmask 10100000
          -93 -809 -54 callsubr
          endchar
        </CharString>
        <CharString name="colonmonetary">
          253 -28 108 -73 -21 1433 117 -12 -20 hstemhm
          285 199 hintmask 00000000
          hintmask 01011000
          569 18 rmoveto
          -71 -371 rlineto
          107 hlineto
          65 339 rlineto
          hintmask 10011000
          -9 43 48 -5 51 14 14 1 13 hhcurveto
          -62 -326 rlineto
          107 hlineto
          64 337 101 15 74 28 58 20 rlinecurve
          35 12 29 9 27 1 55 204 rcurveline
          -98 20 -79 -108 -54 -43 -62 -31 -64 -16 rlinecurve
          248 1297 39 -13 30 -17 16 -19 rlinecurve
          25 -141 rlineto
          97 hlineto
          49 263 -25 7 -34 10 -35 11 rlinecurve
          -39 11 -45 12 -52 8 50 261 rcurveline
          -107 hlineto
          hintmask 01101000
          -48 -250 rlineto
          1 -13 -12 0 -13 hhcurveto
          -52 -50 -5 -8 -49 hvcurveto
          51 262 rlineto
          -107 hlineto
          -56 -291 rlineto
          -331 -111 -236 -327 -493 vvcurveto
          hintmask 01011000
          -263 91 -197 193 -85 vhcurveto
          hintmask 10101000
          125 94 rmoveto
          249 1297 rlineto
          7 31 32 3 33 hhcurveto
          31 30 -2 -4 29 hvcurveto
          -255 -1333 rlineto
          -5 hlineto
          -69 -58 11 21 -48 hvcurveto
          -95 65 rmoveto
          -83 86 -32 136 163 vvcurveto
          421 136 278 208 107 vhcurveto
          endchar
        </CharString>
        <CharString name="comma">
          -755 -481 -21 hstem
          177 223 vstem
          82 29 callgsubr
          endchar
        </CharString>
        <CharString name="commaaccent">
          -915 -498 -21 hstem
          97 184 vstem
          26 -151 -97 callgsubr
          endchar
        </CharString>
        <CharString name="copyright">
          486 51 107 208 101 695 85 207 106 hstem
          177 120 245 156 430 75 367 120 vstem
          -8 callsubr
          245 -4 rmoveto
          -239 1 138 -197 239 hhcurveto
          119 117 45 47 57 hvcurveto
          -28 68 rlineto
          -25 -44 -80 -34 -96 hhcurveto
          -122 -147 115 279 2 hvcurveto
          204 1 110 97 120 hhcurveto
          65 51 -13 -26 29 hvcurveto
          54 -120 rlineto
          75 206 hlineto
          22 -41 -103 16 -90 hhcurveto
          -268 -161 -205 -240 2 hvcurveto
          endchar
        </CharString>
        <CharString name="currency">
          258 252 137 602 137 hstem
          342 151 578 151 vstem
          231 243 rmoveto
          115 -114 194 194 rlineto
          -45 70 83 -26 89 hhcurveto
          92 86 28 48 70 hvcurveto
          195 -194 115 114 -195 194 rlineto
          49 71 28 85 92 vvcurveto
          89 -26 82 -46 69 vhcurveto
          192 192 -114 115 -191 -190 rlineto
          51 -72 -88 30 -95 hhcurveto
          -91 -84 -28 -46 -70 hvcurveto
          -195 196 -114 -115 193 -194 rlineto
          -50 -71 -29 -86 -94 vvcurveto
          -95 30 -88 51 -72 vhcurveto
          70 255 rmoveto
          165 129 136 160 160 129 -136 -165 -165 -129 -136 -160 -160 -129 136 165 vhcurveto
          endchar
        </CharString>
        <CharString name="d">
          -100 -20 143 917 20 callgsubr
          hintmask 00000000
          hintmask 11011100
          -83 callsubr
          hintmask 10111100
          -51 -337 rlineto
          hintmask 11011100
          -89 callgsubr
          endchar
        </CharString>
        <CharString name="dagger">
          -466 1126 152 hstem
          449 127 vstem
          280 151 rmoveto
          119 hlineto
          178 857 -1 118 rlineto
          270 hlineto
          21 152 rlineto
          -292 hlineto
          61 191 31 177 rlineto
          -193 hlineto
          -24 -177 -2 -191 rlineto
          -291 hlineto
          -22 -152 rlineto
          270 hlineto
          -34 -118 rlineto
          endchar
        </CharString>
        <CharString name="daggerdbl">
          -466 628 152 346 152 hstem
          449 127 vstem
          247 -51 rmoveto
          121 hlineto
          127 559 5 38 3 44 -1 38 rlinecurve
          215 hlineto
          22 152 rlineto
          -210 hlineto
          48 228 -1 118 rlineto
          269 hlineto
          22 152 rlineto
          -291 hlineto
          59 191 31 177 rlineto
          -192 hlineto
          -24 -177 -2 -191 rlineto
          -290 hlineto
          -24 -152 rlineto
          272 hlineto
          -35 -118 -24 -228 rlineto
          -209 hlineto
          -25 -152 rlineto
          217 hlineto
          -27 -120 rlineto
          endchar
        </CharString>
        <CharString name="dcaron">
          153 -20 143 892 635 -610 20 callgsubr
          355 180 hintmask 00000000
          hintmask 10101110
          -83 callsubr
          hintmask 10011110
          -51 -337 rlineto
          hintmask 10101110
          -89 callgsubr
          hintmask 01000001
          854 892 -50 callsubr
        </CharString>
        <CharString name="dcroat">
          166 callgsubr
          137 130 133 -20 63 callsubr
          431 207 hintmask 00000000
          hintmask 11011110
          413 -20 rmoveto
          135 110 79 82 65 hvcurveto
          1 -23 rlineto
          -99 -3 45 -39 81 hhcurveto
          113 95 101 25 99 callsubr
          -47 -23 -9 -17 hhcurveto
          -20 -8 28 48 6 hvcurveto
          155 1073 rlineto
          137 hlineto
          16 130 rlineto
          -134 hlineto
          34 231 -53 27 -271 -42 -21 -83 125 -43 -14 -90 rlineto
          -255 hlineto
          -16 -130 rlineto
          251 hlineto
          hintmask 10111110
          -17 -117 rlineto
          hintmask 11011110
          -89 callgsubr
          endchar
        </CharString>
        <CharString name="degree">
          -381 954 123 401 123 hstem
          203 142 378 142 vstem
          523 954 rmoveto
          193 146 139 185 3 hvcurveto
          177 3 -140 146 -186 hhcurveto
          -193 -143 -140 -183 -3 hvcurveto
          -177 -3 137 -147 186 hhcurveto
          7 123 rmoveto
          -106 -81 90 111 2 hvcurveto
          115 2 79 85 111 hhcurveto
          106 82 -89 -111 -2 hvcurveto
          -116 -2 -80 -85 -111 hhcurveto
          endchar
        </CharString>
        <CharString name="dieresis">
          -473 1386 267 hstemhm
          59 57 callsubr
          hintmask 00000000
          hintmask 11100000
          597 1386 -53 callgsubr
        </CharString>
        <CharString name="dieresis.cap">
          -476 1724 266 hstem
          65 -9 callgsubr
          vstem
          599 1724 -82 callsubr
        </CharString>
        <CharString name="divide">
          88 695 159 hstem
          273 890 vstem
          745 1026 rmoveto
          77 89 61 88 9 hvcurveto
          69 8 -37 58 -93 hhcurveto
          -76 -91 -64 -85 -9 hvcurveto
          -79 -8 61 -48 70 hhcurveto
          -472 -331 rmoveto
          872 hlineto
          18 159 rlineto
          -872 hlineto
          235 -480 rmoveto
          -78 -9 60 -48 71 hhcurveto
          79 85 60 89 11 hvcurveto
          68 7 -35 58 -94 hhcurveto
          -76 -90 -64 -85 -9 hvcurveto
          endchar
        </CharString>
        <CharString name="dollar">
          -77 2 -21 1555 -20 hstem
          249 188 416 193 vstem
          105 65 rmoveto
          39 -31 125 -40 147 -13 -34 -211 rcurveline
          180 hlineto
          34 212 rlineto
          251 30 199 161 257 vvcurveto
          211 -172 108 -165 102 vhcurveto
          -146 89 -126 83 163 vvcurveto
          184 159 64 106 75 92 -23 -36 45 vhcurveto
          36 -165 rlineto
          119 hlineto
          47 247 -43 29 -89 37 -131 13 rlinecurve
          31 185 rlineto
          -181 hlineto
          -30 -183 rlineto
          -235 -26 -189 -158 -242 vvcurveto
          -226 176 -103 166 -104 vhcurveto
          142 -88 120 -87 -161 vvcurveto
          -188 -173 -72 -132 -85 -98 25 52 -63 vhcurveto
          -22 185 rlineto
          -129 hlineto
          endchar
        </CharString>
        <CharString name="dong">
          47 0 118 129 135 -125 132 677 102 -31 -20 182 108 263 -21 hstemhm
          162 200 hintmask 00000000
          hintmask 10101111
          492 257 rmoveto
          153 103 67 67 72 hvcurveto
          hintmask 11001111
          -5 -46 rlineto
          -1 -11 -1 -10 -9 vvcurveto
          -62 34 -6 59 77 82 23 15 53 vhcurveto
          11 97 rlineto
          -123 hlineto
          113 917 rlineto
          169 hlineto
          13 108 rlineto
          -168 hlineto
          30 242 -41 31 rlineto
          -1 hlineto
          -355 -43 -11 -92 199 -15 -15 -123 rlineto
          -281 hlineto
          -13 -108 rlineto
          280 hlineto
          -20 -162 rlineto
          hintmask 10110111
          16 -52 -58 15 -76 hhcurveto
          -341 -216 -263 -304 hvcurveto
          hintmask 10101111
          -235 158 -109 172 vhcurveto
          76 132 rmoveto
          -111 -95 78 168 hvcurveto
          hintmask 10110111
          198 103 233 218 103 86 -33 -36 16 vhcurveto
          -61 -496 rlineto
          hintmask 10101111
          -46 -49 -95 -66 -115 hhcurveto
          -434 -389 rmoveto
          887 hlineto
          14 118 rlineto
          -887 hlineto
          endchar
        </CharString>
        <CharString name="dotaccent">
          -894 1386 267 hstem
          59 270 vstem
          176 1386 -95 callgsubr
          endchar
        </CharString>
        <CharString name="dotaccent.cap">
          -893 1688 267 hstem
          59 271 vstem
          176 1688 -16 callgsubr
        </CharString>
        <CharString name="dotlessi">
          -26 callsubr
          hstemhm
          161 212 hintmask 00000000
          hintmask 01011000
          161 113 -78 callsubr
          hintmask 10101000
          -90 callgsubr
          hintmask 01011000
          -83 callgsubr
          endchar
        </CharString>
        <CharString name="dotlessj">
          71 callsubr
          hstemhm
          -211 721 131 callgsubr
          185 65 -80 callgsubr
          hintmask 11010000
          63 callgsubr
          hintmask 10110000
          -7 callgsubr
          endchar
        </CharString>
        <CharString name="e">
          -41 callsubr
          hstem
          85 215 454 209 vstem
          85 430 -95 callsubr
        </CharString>
        <CharString name="eacute">
          -41 callsubr
          87 493 147 callgsubr
          237 461 -244 209 hintmask 00010100
          602 1250 -88 callsubr
          hintmask 11101010
          -452 -882 -95 callsubr
        </CharString>
        <CharString name="ebreve">
          -41 callsubr
          137 150 147 callgsubr
          60 113 281 209 hintmask 11101010
          85 430 -107 callsubr
          hintmask 00010100
          345 730 -91 callsubr
        </CharString>
        <CharString name="ecaron">
          -41 callsubr
          101 387 147 callgsubr
          29 697 -272 209 hintmask 00010100
          552 1264 -62 callsubr
          hintmask 11101010
          -244 -1163 -95 callsubr
        </CharString>
        <CharString name="ecircumflex">
          -41 callsubr
          65 423 147 callgsubr
          -18 697 -225 209 hintmask 00010100
          341 1229 -76 callgsubr
          hintmask 11101010
          -197 -856 -95 callsubr
        </CharString>
        <CharString name="edieresis">
          -41 callsubr
          223 267 147 callgsubr
          25 57 callsubr
          -262 209 hintmask 00000000
          hintmask 00010110
          863 1386 -104 callsubr
          hintmask 11101001
          -356 -956 -95 callsubr
        </CharString>
        <CharString name="edotaccent">
          -41 callsubr
          223 267 147 callgsubr
          240 270 -56 209 hintmask 11101010
          85 430 -107 callsubr
          hintmask 00010100
          352 816 -95 callgsubr
          endchar
        </CharString>
        <CharString name="egrave">
          -41 callsubr
          88 492 147 callgsubr
          -43 443 54 209 hintmask 11101010
          85 430 -107 callsubr
          hintmask 00010100
          328 681 -63 callgsubr
        </CharString>
        <CharString name="eight">
          -99 -20 107 1363 100 hstemhm
          105 216 -41 194 376 208 -133 199 hintmask 00000000
          hintmask 11100100
          105 334 rmoveto
          -249 227 -105 207 vhcurveto
          hintmask 11101000
          263 256 143 267 168 -125 153 -145 102 hvcurveto
          hintmask 11010100
          189 95 147 129 192 vvcurveto
          201 -157 120 -219 -269 -199 -161 -222 -153 103 -120 108 -88 vhcurveto
          hintmask 11100100
          -231 -102 -155 -158 -212 vvcurveto
          598 532 rmoveto
          hintmask 11010100
          -123 88 -106 95 136 vvcurveto
          150 112 115 141 110 88 -76 -160 vhcurveto
          hintmask 11100100
          -158 -87 -129 -135 -61 vhcurveto
          -382 -499 rmoveto
          3 163 88 142 148 69 rrcurveto
          hintmask 11101000
          172 -115 118 -118 -148 vvcurveto
          -162 -123 -111 -158 vhcurveto
          hintmask 11100100
          -156 -92 113 167 hvcurveto
          endchar
        </CharString>
        <CharString name="ellipsis">
          296 -22 276 hstemhm
          84 282 244 282 244 282 cntrmask 01110000
          hintmask 00000000
          hintmask 11110000
          1137 105 -54 callsubr
          -526 hmoveto
          -73 callsubr
          -526 hmoveto
          -73 callsubr
          endchar
        </CharString>
        <CharString name="emacron">
          -41 callsubr
          261 152 147 callgsubr
          71 531 -148 209 hintmask 11101010
          85 430 -107 callsubr
          hintmask 00010100
          66 854 -52 callsubr
          endchar
        </CharString>
        <CharString name="emdash">
          749 693 159 hstem
          233 1620 vstem
          233 693 rmoveto
          1590 hlineto
          30 159 rlineto
          -1591 hlineto
          endchar
        </CharString>
        <CharString name="endash">
          256 693 159 hstem
          233 1127 vstem
          233 693 rmoveto
          1097 hlineto
          30 159 rlineto
          -1097 hlineto
          endchar
        </CharString>
        <CharString name="eng">
          -19 -518 107 432 -21 1003 159 -15 -20 hstemhm
          887 205 120 callsubr
          133 hmoveto
          200 hlineto
          102 754 rlineto
          141 100 138 108 101 hhcurveto
          71 44 -12 -142 -2 hvcurveto
          -5 -252 -78 -483 -8 -52 rrcurveto
          -238 -43 -65 -235 -192 hhcurveto
          -11 -41 4 8 -18 hvcurveto
          -35 -82 rlineto
          -24 22 55 -13 64 hhcurveto
          231 151 166 352 71 hvcurveto
          52 263 44 343 11 255 rrcurveto
          226 10 -99 75 -138 hhcurveto
          -151 -150 -104 -132 -106 hvcurveto
          hintmask 11011000
          17 197 -48 24 -247 -52 -18 -89 107 -64 -8 3 rlineto
          endchar
        </CharString>
        <CharString name="eogonek">
          -230 169 callsubr
          267 140 340 32 callsubr
          hstem
          85 215 77 197 180 209 vstem
          85 430 rmoveto
          -228 -6 123 -222 285 hhcurveto
          40 39 6 9 36 hvcurveto
          -61 -36 -65 -37 -59 -79 -24 -33 -14 -50 -2 -41 101 callgsubr
          -38 -16 -37 hhcurveto
          -24 -33 21 65 3 hvcurveto
          2 67 121 132 106 91 43 32 32 34 21 28 -47 84 rcurveline
          -105 -112 -124 -42 -102 hhcurveto
          -179 -48 210 130 13 hvcurveto
          192 6 472 136 -1 311 rrcurveto
          141 -92 109 -194 -332 -250 -354 -379 -10 vhcurveto
          220 140 rmoveto
          -57 callsubr
          1 hvcurveto
          -203 -289 -116 -160 -7 vhcurveto
          endchar
        </CharString>
        <CharString name="equal">
          -219 140 callgsubr
          150 848 rmoveto
          815 hlineto
          18 158 rlineto
          -815 hlineto
          -88 -668 rmoveto
          815 hlineto
          18 158 rlineto
          -815 hlineto
          endchar
        </CharString>
        <CharString name="estimated">
          93 -16 119 527 138 468 120 hstem
          115 265 653 248 vstem
          380 275 rmoveto
          355 890 vlineto
          11 51 0 65 86 vvcurveto
          -11 329 -238 200 -289 -5 rrcurveto
          -421 -7 -207 -286 -392 vvcurveto
          -430 232 -257 392 141 198 38 61 85 vhcurveto
          -40 115 rlineto
          -34 -65 -151 -61 -146 hhcurveto
          -161 -138 45 127 -82 hvcurveto
          493 vmoveto
          288 vlineto
          128 79 128 52 143 hhcurveto
          154 94 -50 -74 55 hvcurveto
          -344 vlineto
          endchar
        </CharString>
        <CharString name="eth">
          -105 -20 109 908 113 hstem
          85 216 569 217 vstem
          85 425 rmoveto
          -215 127 -230 271 393 211 380 461 277 -93 241 -232 195 vhcurveto
          -5 3 -4 4 -5 4 146 163 rcurveline
          -97 91 rlineto
          0 -91 -112 -64 -70 vhcurveto
          -87 53 -101 49 -68 17 -44 -120 rcurveline
          62 -15 73 -41 68 -49 -154 -165 rcurveline
          101 -89 154 174 16 -14 139 -123 35 -103 45 -193 rlinecurve
          82 -49 -102 30 -89 hhcurveto
          -283 -273 -258 -427 hvcurveto
          216 -14 rmoveto
          261 98 325 237 178 59 -201 -68 -3 vhcurveto
          -2 -42 -9 -85 -8 -50 rrcurveto
          -256 -40 -132 -206 -171 hhcurveto
          -138 -69 147 175 hvcurveto
          endchar
        </CharString>
        <CharString name="exclam">
          -595 -1 -21 hstemhm
          137 -3 callgsubr
          endchar
        </CharString>
        <CharString name="exclamdbl">
          22 -1 -21 hstemhm
          137 502 -249 28 335 -3 callgsubr
          hintmask 00000000
          733 385 rmoveto
          141 hlineto
          hintmask 10001000
          244 1288 rlineto
          hintmask 10010000
          -249 hlineto
          hintmask 10001000
          -253 -1673 rmoveto
          -79 -9 49 -48 71 hhcurveto
          hintmask 10010000
          80 78 58 91 12 hvcurveto
          69 8 -34 58 -96 hhcurveto
          hintmask 10001000
          -75 -73 -65 -84 -11 hvcurveto
          endchar
        </CharString>
        <CharString name="exclamdown">
          -595 1345 21 hstemhm
          81 502 -281 28 hintmask 00000000
          hintmask 10100000
          466 854 rmoveto
          -141 hlineto
          hintmask 11000000
          -244 -1288 rlineto
          hintmask 10100000
          249 hlineto
          hintmask 11000000
          253 1673 rmoveto
          79 9 -49 48 -71 hhcurveto
          hintmask 10100000
          -80 -78 -58 -91 -12 hvcurveto
          -69 -8 34 -58 96 hhcurveto
          hintmask 11000000
          75 73 65 84 11 hvcurveto
          endchar
        </CharString>
        <CharString name="f">
          -582 93 callsubr
          369 146 hstemhm
          -209 1092 hintmask 00000000
          hintmask 10111000
          128 -128 -38 callgsubr
          hintmask 01111000
          117 callsubr
          hintmask 10111000
          -86 callsubr
          endchar
        </CharString>
        <CharString name="f_f">
          128 93 callsubr
          -6 -20 365 146 -116 146 hstemhm
          -209 1799 hintmask 00000000
          hintmask 10101010
          551 -331 rmoveto
          hintmask 01101010
          117 callsubr
          hintmask 10100110
          -86 callsubr
          -138 -1139 rlineto
          -136 -18 -36 -105 -65 hhcurveto
          hintmask 10101010
          -50 -1 -101 33 -14 6 rrcurveto
          -423 203 -38 callgsubr
          hintmask 01101010
          117 callsubr
          hintmask 10101010
          -66 callgsubr
          hintmask 10011010
          -7 -42 rlineto
          hintmask 10101010
          157 callgsubr
        </CharString>
        <CharString name="f_f_i">
          36 callgsubr
          -58 270 -17 callgsubr
          hintmask 1001010010100000
          551 -331 rmoveto
          hintmask 0101010010100000
          117 callsubr
          hintmask 1001010001100000
          -94 callgsubr
          -138 -1139 rlineto
          -136 -18 -36 -105 -65 hhcurveto
          hintmask 1001010010100000
          -50 -1 -101 33 -14 6 rrcurveto
          hintmask 1001010010010000
          1174 1834 rmoveto
          -64 53 -53 64 82 71 74 81 61 -48 51 -76 -68 -78 -70 -80 vhcurveto
          -1597 -1631 -64 callsubr
        </CharString>
        <CharString name="f_f_i_dflt">
          36 callgsubr
          -17 callgsubr
          hintmask 1001010010100000
          551 -331 rmoveto
          hintmask 0101010010100000
          117 callsubr
          hintmask 1001010001100000
          -94 callgsubr
          -138 -1139 rlineto
          -136 -18 -36 -105 -65 hhcurveto
          hintmask 1001010010100000
          -50 -1 -101 33 -14 6 rrcurveto
          -423 203 -64 callsubr
        </CharString>
        <CharString name="f_f_i_trk">
          760 -18 callgsubr
          144 -16 -20 44 -20 381 146 hstemhm
          -209 1092 -392 1092 -22 212 -17 callgsubr
          hintmask 1000100110000000
          128 -128 -38 callgsubr
          hintmask 0100100110000000
          117 callsubr
          hintmask 1000100110000000
          -86 callsubr
          -17 callgsubr
          562 -1139 -38 callgsubr
          hintmask 1000100101000000
          117 callsubr
          hintmask 0100100101000000
          -86 callsubr
          hintmask 1000100101000000
          595 60 callsubr
          -17 callgsubr
          -90 callgsubr
          hintmask 0001001000100000
          -83 callgsubr
          hintmask 0010010000100000
          -22 callsubr
        </CharString>
        <CharString name="f_f_l">
          735 -18 callgsubr
          144 -6 -20 365 146 -116 146 -145 -20 hstemhm
          1550 202 -17 callgsubr
          hintmask 1001100011000000
          551 -331 rmoveto
          hintmask 0101100011000000
          117 callsubr
          hintmask 1001100101000000
          -94 callgsubr
          -138 -1139 rlineto
          -136 -18 -36 -105 -65 hhcurveto
          hintmask 1001100011000000
          -50 -1 -101 33 -14 6 rrcurveto
          999 446 -11 callgsubr
          hintmask 1010100011000000
          -69 callgsubr
          hintmask 1001100011000000
          83 callgsubr
          -1422 -243 -38 callgsubr
          hintmask 0101100011000000
          117 callsubr
          hintmask 1001101001000000
          -66 callgsubr
          hintmask 1001010011000000
          -7 -42 rlineto
          hintmask 1001100011000000
          157 callgsubr
        </CharString>
        <CharString name="f_i_trk">
          65 -18 callgsubr
          144 -16 -20 44 -20 381 146 hstemhm
          866 212 -17 callgsubr
          hintmask 1001100110000000
          128 -128 -38 callgsubr
          hintmask 0101100110000000
          117 callsubr
          hintmask 1001100110000000
          -94 callgsubr
          600 60 callsubr
          hintmask 1010010110000000
          -90 callgsubr
          hintmask 1001001110000000
          -49 24 -306 -51 -18 -81 146 -52 rlineto
          hintmask 1001100110000000
          -54 -384 -58 -321 -12 -161 rrcurveto
          endchar
        </CharString>
        <CharString name="fi">
          65 -18 callgsubr
          144 -16 -20 44 -20 381 146 hstemhm
          866 212 -58 270 -17 callgsubr
          hintmask 1001100110000000
          128 -128 -38 callgsubr
          hintmask 0101100110000000
          117 callsubr
          hintmask 1001100101000000
          -94 callgsubr
          871 375 -95 callgsubr
          hintmask 1001100110000000
          -271 -1273 -78 callsubr
          hintmask 1010010110000000
          -90 callgsubr
          hintmask 1001001110000000
          -49 24 -306 -51 -18 -81 146 -52 rlineto
          hintmask 1001100110000000
          -54 -384 -58 -321 -12 -161 rrcurveto
          endchar
        </CharString>
        <CharString name="five">
          -174 -346 103 705 119 394 171 -171 187 hstemhm
          715 236 120 callsubr
          52 -237 rmoveto
          -14 -92 rlineto
          -14 40 59 -3 34 hhcurveto
          368 412 204 364 254 -177 105 -216 -64 -94 -12 -18 -65 hvcurveto
          116 424 rlineto
          534 hlineto
          hintmask 11011000
          58 187 rlineto
          -139 hlineto
          hintmask 11101000
          -22 -16 rlineto
          -569 hlineto
          -170 -699 49 -39 rlineto
          33 97 90 21 73 hhcurveto
          184 79 -72 -191 -251 -283 -191 -300 -24 -26 1 5 -30 hvcurveto
          endchar
        </CharString>
        <CharString name="fl">
          30 -18 callgsubr
          144 369 146 -145 -20 hstemhm
          845 169 callgsubr
          hintmask 10011011
          128 -128 -38 callgsubr
          hintmask 01011011
          117 callsubr
          hintmask 10011101
          -94 callgsubr
          579 -896 -11 callgsubr
          hintmask 10101011
          -69 callgsubr
          hintmask 10011101
          83 callgsubr
          endchar
        </CharString>
        <CharString name="florin">
          -224 1003 138 391 158 hstem
          193 827 vstem
          237 -356 rmoveto
          182 hlineto
          172 1359 rlineto
          306 hlineto
          12 138 rlineto
          -306 146 callgsubr
          224 18 88 23 105 hhcurveto
          95 64 -22 -10 19 hvcurveto
          11 173 rlineto
          7 -13 -37 10 -90 hhcurveto
          -166 -263 -189 -298 -24 hvcurveto
          -8 -62 -219 -59 -7 -79 rlineto
          216 hlineto
          endchar
        </CharString>
        <CharString name="four">
          -31 0 152 1013 -20 hstem
          34 1114 vstem
          71 hmoveto
          616 hlineto
          -49 -375 rlineto
          194 hlineto
          47 375 rlineto
          248 hlineto
          21 160 -249 -15 56 446 -198 -59 -51 -403 -502 -28 100 120 217 311 299 429 110 204 rlinecurve
          -159 91 rlineto
          -37 hlineto
          -274 -534 -259 -413 -167 -215 rrcurveto
          endchar
        </CharString>
        <CharString name="four.numr">
          -261 710 142 hstem
          70 901 vstem
          108 710 -51 callsubr
          endchar
        </CharString>
        <CharString name="four.superior">
          -261 884 142 hstem
          98 901 vstem
          136 884 -51 callsubr
          endchar
        </CharString>
        <CharString name="fraction">
          64 callgsubr
        </CharString>
        <CharString name="franc">
          -118 0 88 225 130 268 147 544 119 -100 101 hstemhm
          28 1172 hintmask 00000000
          hintmask 11110100
          28 hmoveto
          622 hlineto
          8 88 -269 31 26 194 rlineto
          382 hlineto
          18 130 rlineto
          -382 hlineto
          38 277 12 callgsubr
          hintmask 11101100
          47 callgsubr
          -120 -955 rlineto
          -137 hlineto
          -18 -130 rlineto
          139 hlineto
          -24 -196 -149 -29 rlineto
          endchar
        </CharString>
        <CharString name="g">
          8 callgsubr
          hstem
          82 211 vstem
          168 -287 -32 callgsubr
        </CharString>
        <CharString name="gbreve">
          8 callgsubr
          137 150 63 callsubr
          134 113 hintmask 11101000
          168 -287 -100 callsubr
          hintmask 00010100
          267 1177 -91 callsubr
        </CharString>
        <CharString name="gcircumflex">
          8 callgsubr
          65 423 63 callsubr
          56 697 hintmask 00010100
          408 1229 -76 callgsubr
          hintmask 11101000
          -181 -1573 -32 callgsubr
        </CharString>
        <CharString name="gcommaaccent">
          8 callgsubr
          hstem
          82 211 277 192 vstem
          703 1294 rmoveto
          125 120 6 55 -43 9 -34 61 5 47 rlinecurve
          7 72 22 41 49 38 3 26 rcurveline
          -43 41 -80 -18 -135 -116 -15 -152 rlinecurve
          -10 -102 53 -103 90 -19 rrcurveto
          -535 -1581 -32 callgsubr
        </CharString>
        <CharString name="gdotaccent">
          8 callgsubr
          223 267 63 callsubr
          312 270 hintmask 11101000
          168 -287 -100 callsubr
          hintmask 00010100
          272 1263 -95 callgsubr
          endchar
        </CharString>
        <CharString name="germandbls">
          -96 -16 132 -95 -21 1486 99 hstemhm
          652 184 27 212 -186 207 hintmask 00000000
          hintmask 01110100
          72 hmoveto
          199 hlineto
          133 987 rlineto
          436 59 107 63 158 hhcurveto
          115 46 -101 -98 -114 -53 -93 -80 -81 hvcurveto
          -59 -66 -45 -45 -95 vvcurveto
          -87 74 -113 59 -70 vhcurveto
          hintmask 10111000
          40 -64 38 -83 -79 vvcurveto
          -154 -67 -26 -118 -1 vhcurveto
          -87 -1 -105 63 -34 40 -26 -187 rcurveline
          -22 44 90 -25 90 hhcurveto
          224 201 154 191 130 -61 87 -55 82 hvcurveto
          hintmask 10110100
          -83 103 -40 60 50 146 260 108 218 vvcurveto
          184 -137 88 -182 -217 -284 -58 -600 -76 vhcurveto
          endchar
        </CharString>
        <CharString name="grave">
          -741 1251 492 hstem
          48 443 vstem
          424 1251 -63 callgsubr
        </CharString>
        <CharString name="grave.cap">
          -760 1680 -21 hstem
          21 398 vstem
          351 1611 39 callgsubr
        </CharString>
        <CharString name="greater">
          86 179 1148 hstem
          250 1025 vstem
          1275 817 rmoveto
          -890 510 -23 -199 704 -376 -792 -376 -24 -197 1009 510 rlineto
          endchar
        </CharString>
        <CharString name="greaterequal">
          82 -2 151 hstem
          141 1071 vstem
          197 246 rmoveto
          1005 443 10 78 -889 437 -25 -185 654 -293 -731 -296 rlineto
          -80 -432 rmoveto
          948 hlineto
          20 151 rlineto
          -948 hlineto
          endchar
        </CharString>
        <CharString name="guillemotleft">
          584 152 934 hstemhm
          241 754 -79 754 hintmask 11000000
          241 530 30 callgsubr
          hintmask 10100000
          653 -160 30 callgsubr
          endchar
        </CharString>
        <CharString name="guillemotright">
          584 152 934 hstemhm
          126 754 -78 754 hintmask 11000000
          880 708 29 callsubr
          hintmask 10100000
          698 160 29 callsubr
          endchar
        </CharString>
        <CharString name="guilsinglleft">
          -92 152 934 hstem
          241 754 vstem
          241 530 30 callgsubr
          endchar
        </CharString>
        <CharString name="guilsinglright">
          -92 152 934 hstem
          126 754 vstem
          880 708 29 callsubr
          endchar
        </CharString>
        <CharString name="h">
          -51 callgsubr
        </CharString>
</ttFont>
